<?xml version="1.0" encoding="UTF-8" standalone="no"?>
<svg
   version="1.1"
   id="Layer_1"
   x="0px"
   y="0px"
   width="100"
   viewBox="0 0 100 100"
   enable-background="new 0 0 423 230"
   xml:space="preserve"
   sodipodi:docname="bison-square.svg"
   inkscape:version="1.2.2 (1:1.2.2+202212051550+b0a8486541)"
   inkscape:export-filename="../../../github/decred/dcrdex/client/webserver/site/src/img/favicon.png"
   inkscape:export-xdpi="192"
   inkscape:export-ydpi="192"
   height="100"
   xmlns:inkscape="http://www.inkscape.org/namespaces/inkscape"
   xmlns:sodipodi="http://sodipodi.sourceforge.net/DTD/sodipodi-0.dtd"
   xmlns="http://www.w3.org/2000/svg"
   xmlns:svg="http://www.w3.org/2000/svg"><defs
   id="defs1782"><rect
     x="132.91405"
     y="507.20398"
     width="117.36701"
     height="66.220131"
     id="rect846" /><style
     id="style7133">.a{fill:url(#a);}.b{fill:url(#b);}</style><linearGradient
     id="a"
     x1="153.91"
     y1="333.84"
     x2="275.60001"
     y2="212.14999"
     gradientUnits="userSpaceOnUse"><stop
       offset="0.2"
       stop-color="#2576f4"
       id="stop7135" /><stop
       offset="1"
       stop-color="#3298da"
       id="stop7137" /></linearGradient><linearGradient
     id="b"
     x1="277.17001"
     y1="299.94"
     x2="426.53"
     y2="213.71001"
     gradientUnits="userSpaceOnUse"><stop
       offset="0"
       stop-color="#36bdba"
       id="stop7140" /><stop
       offset="0.93"
       stop-color="#39d8aa"
       id="stop7142" /></linearGradient><linearGradient
     id="a-6"
     x1="153.91"
     y1="333.84"
     x2="275.60001"
     y2="212.14999"
     gradientUnits="userSpaceOnUse"><stop
       offset="0.2"
       stop-color="#2576f4"
       id="stop7135-6" /><stop
       offset="1"
       stop-color="#3298da"
       id="stop7137-4" /></linearGradient><linearGradient
     id="b-9"
     x1="277.17001"
     y1="299.94"
     x2="426.53"
     y2="213.71001"
     gradientUnits="userSpaceOnUse"><stop
       offset="0"
       stop-color="#36bdba"
       id="stop7140-5" /><stop
       offset="0.93"
       stop-color="#39d8aa"
       id="stop7142-0" /></linearGradient><style
     id="style1997">.a{fill:#fff;}.b{fill:url(#a);}.c{fill:url(#b);}</style><linearGradient
     id="a-9"
     x1="368.44"
     y1="296.17999"
     x2="512.25"
     y2="213.16"
     gradientUnits="userSpaceOnUse"
     gradientTransform="matrix(0.05762944,0,0,0.05762944,322.90613,151.60941)"><stop
       offset="0"
       stop-color="#36bdba"
       id="stop1999" /><stop
       offset="0.93"
       stop-color="#39d8aa"
       id="stop2001" /></linearGradient><linearGradient
     id="b-5"
     x1="241.10001"
     y1="330.17001"
     x2="359.10001"
     y2="212.17999"
     gradientUnits="userSpaceOnUse"
     gradientTransform="matrix(0.05762944,0,0,0.05762944,322.90613,151.60941)"><stop
       offset="0.2"
       stop-color="#2576f4"
       id="stop2004" /><stop
       offset="1"
       stop-color="#3298da"
       id="stop2006" /></linearGradient><style
     id="style14059">.a{fill:#fff;}.b{fill:#2dd8a3;}.c{fill:#2970ff;}</style></defs><sodipodi:namedview
   id="namedview1780"
   pagecolor="#505050"
   bordercolor="#ffffff"
   borderopacity="1"
   inkscape:showpageshadow="0"
   inkscape:pageopacity="0"
   inkscape:pagecheckerboard="1"
   inkscape:deskcolor="#505050"
   showgrid="false"
   inkscape:zoom="4"
   inkscape:cx="52.875"
   inkscape:cy="72.625"
   inkscape:window-width="1920"
   inkscape:window-height="1015"
   inkscape:window-x="0"
   inkscape:window-y="0"
   inkscape:window-maximized="1"
   inkscape:current-layer="Layer_1"
   showguides="true" />



























































































































































































































































































































<g
   id="g9579-6-5"
   transform="matrix(3.1760346,0,0,3.143452,-761.83494,-1037.7312)"><g
     id="g9577-7-0"
     transform="matrix(0.63550702,0,0,0.63550702,73.840386,123.47647)"><path
       style="fill:#6dc6fd;stroke-width:0.0726814"
       d="m 284.05196,372.16838 c 0.0899,-0.0173 0.23713,-0.0173 0.32707,0 0.0899,0.0173 0.0163,0.0315 -0.16353,0.0315 -0.17989,0 -0.25348,-0.0142 -0.16354,-0.0315 z m -1.08937,-0.0728 c 0.0904,-0.0174 0.22123,-0.0167 0.29072,0.001 0.0695,0.0182 -0.004,0.0324 -0.16438,0.0316 -0.1599,-8.2e-4 -0.21675,-0.0157 -0.12634,-0.0331 z m -0.80035,-0.0694 c 0.05,-0.0202 0.13174,-0.0202 0.18171,0 0.05,0.0202 0.009,0.0367 -0.0908,0.0367 -0.0999,0 -0.14082,-0.0165 -0.0909,-0.0367 z m -0.50422,-0.0742 c 0.0525,-0.021 0.11515,-0.0184 0.1393,0.006 0.0241,0.0242 -0.0188,0.0413 -0.0954,0.0382 -0.0847,-0.003 -0.10189,-0.0207 -0.0439,-0.0439 z m -0.43609,-0.0727 c 0.0525,-0.021 0.11515,-0.0184 0.1393,0.006 0.0242,0.0242 -0.0188,0.0413 -0.0954,0.0382 -0.0847,-0.003 -0.10189,-0.0207 -0.0439,-0.0439 z M 270.799,370.32995 c 0,-0.65958 0.011,-0.92941 0.0245,-0.59962 0.0135,0.32979 0.0135,0.86945 0,1.19924 -0.0135,0.3298 -0.0245,0.06 -0.0245,-0.59962 z m 13.04759,0.89035 -0.1762,-0.19987 0.19987,0.1762 c 0.10993,0.0969 0.19987,0.18686 0.19987,0.19987 0,0.057 -0.0589,0.0106 -0.22354,-0.1762 z m -0.69188,-0.69047 -0.13846,-0.16354 0.16354,0.13846 c 0.15368,0.13012 0.19662,0.18861 0.13845,0.18861 -0.0138,0 -0.0874,-0.0736 -0.16353,-0.16353 z m -0.80641,-2.05326 c 4.4e-4,-0.23985 0.014,-0.3292 0.0301,-0.19857 0.0162,0.13064 0.0158,0.32688 -7.4e-4,0.43609 -0.0166,0.10922 -0.0298,0.002 -0.0294,-0.23752 z m -11.49473,0.10903 c 0,-0.0999 0.0165,-0.14082 0.0367,-0.0909 0.0202,0.05 0.0202,0.13174 0,0.18171 -0.0202,0.05 -0.0367,0.009 -0.0367,-0.0908 z m 23.91223,-0.21805 c 0,-0.0999 0.0165,-0.14082 0.0367,-0.0908 0.0202,0.05 0.0202,0.13174 0,0.1817 -0.0202,0.05 -0.0367,0.009 -0.0367,-0.0908 z m -23.84528,-0.26044 c 0.003,-0.0847 0.0207,-0.10189 0.0439,-0.0439 0.021,0.0525 0.0184,0.11515 -0.006,0.1393 -0.0241,0.0242 -0.0413,-0.0188 -0.0382,-0.0954 z m 25.10573,-0.46637 c 0.27768,-0.27983 0.52122,-0.50877 0.54121,-0.50877 0.02,0 -0.19085,0.22894 -0.46853,0.50877 -0.27768,0.27982 -0.52123,0.50877 -0.54122,0.50877 -0.02,0 0.19086,-0.22895 0.46854,-0.50877 z m -2.83039,-0.79272 c -0.0224,-0.0362 0.0247,-0.0488 0.10473,-0.0279 0.16971,0.0444 0.19116,0.0938 0.0407,0.0938 -0.0576,0 -0.12306,-0.0297 -0.14546,-0.0659 z m 0.46824,-0.1069 c 0,-0.0151 0.0572,-0.0723 0.12719,-0.1272 0.11528,-0.0904 0.11785,-0.0878 0.0274,0.0274 -0.095,0.12107 -0.15463,0.15957 -0.15463,0.0998 z m 3.34335,-0.15427 c 0.0939,-0.0999 0.18705,-0.1817 0.20704,-0.1817 0.02,0 -0.0405,0.0818 -0.13436,0.1817 -0.0939,0.0999 -0.18706,0.18171 -0.20704,0.18171 -0.02,0 0.0405,-0.0818 0.13436,-0.18171 z m -3.89657,-0.87217 c 1.5e-4,-0.51968 0.0117,-0.72273 0.0257,-0.45124 0.014,0.27149 0.0139,0.69668 -2.2e-4,0.94486 -0.0142,0.24818 -0.0256,0.026 -0.0255,-0.49362 z m 1.49808,0.14536 c 0.21713,-0.21986 0.41113,-0.39975 0.43112,-0.39975 0.02,0 -0.14131,0.17989 -0.35844,0.39975 -0.21713,0.21986 -0.41114,0.39975 -0.43113,0.39975 -0.02,0 0.14132,-0.17989 0.35845,-0.39975 z m 2.97994,0.0727 c 0.0939,-0.0999 0.18706,-0.1817 0.20704,-0.1817 0.02,0 -0.0405,0.0818 -0.13436,0.1817 -0.0939,0.0999 -0.18705,0.1817 -0.20704,0.1817 -0.02,0 0.0405,-0.0818 0.13436,-0.1817 z m -5.81452,-0.36341 c 0.1356,-0.13991 0.26291,-0.25438 0.2829,-0.25438 0.02,0 -0.0746,0.11447 -0.21022,0.25438 -0.13561,0.13992 -0.26291,0.25439 -0.2829,0.25439 -0.02,0 0.0746,-0.11447 0.21022,-0.25439 z m 4.00322,-0.30284 c -0.003,-0.0866 -0.0466,-0.17397 -0.0966,-0.19413 -0.0712,-0.0287 -0.0707,-0.0379 0.002,-0.0424 0.11032,-0.007 0.19055,0.16869 0.1375,0.30076 -0.0206,0.0513 -0.04,0.0224 -0.0432,-0.0642 z m 2.68348,-0.11689 c 0,-0.011 0.25347,-0.26448 0.56328,-0.56329 l 0.56328,-0.54329 -0.54329,0.56328 c -0.5046,0.52317 -0.58327,0.59645 -0.58327,0.5433 z m -6.03257,-0.30708 c 0.13561,-0.13991 0.26291,-0.25439 0.2829,-0.25439 0.02,0 -0.0746,0.11448 -0.21022,0.25439 -0.13561,0.13991 -0.26291,0.25438 -0.2829,0.25438 -0.02,0 0.0746,-0.11447 0.21022,-0.25438 z m -19.5991,-2.25313 c 3.1e-4,-0.3198 0.0131,-0.44159 0.0284,-0.27064 0.0154,0.17095 0.0151,0.43261 -5.2e-4,0.58146 -0.0156,0.14885 -0.0282,0.009 -0.0279,-0.31082 z m -8.88632,0.35735 c 0.003,-0.0847 0.0207,-0.10189 0.0439,-0.0439 0.021,0.0525 0.0184,0.11515 -0.006,0.13931 -0.0242,0.0241 -0.0413,-0.0188 -0.0382,-0.0954 z m -0.0669,-0.61173 c 0,-0.0999 0.0165,-0.14082 0.0367,-0.0909 0.0202,0.05 0.0202,0.13174 0,0.18171 -0.0202,0.05 -0.0367,0.009 -0.0367,-0.0908 z m 19.40867,-0.0364 c 0.001,-0.11992 0.0178,-0.16018 0.0362,-0.0895 0.0184,0.0707 0.0172,0.16883 -0.003,0.21804 -0.0199,0.0492 -0.035,-0.009 -0.0335,-0.12858 z m -19.40867,-2.28946 c 0,-0.0999 0.0165,-0.14082 0.0367,-0.0909 0.0202,0.05 0.0202,0.13174 0,0.18171 -0.0202,0.05 -0.0367,0.009 -0.0367,-0.0908 z m 0.0669,-0.55117 c 0.003,-0.0847 0.0207,-0.10189 0.0439,-0.0439 0.021,0.0525 0.0184,0.11516 -0.006,0.13931 -0.0242,0.0241 -0.0413,-0.0188 -0.0382,-0.0954 z m 0.36341,-3.27067 c 0.003,-0.0847 0.0207,-0.10189 0.0439,-0.0439 0.021,0.0525 0.0184,0.11515 -0.006,0.1393 -0.0242,0.0241 -0.0413,-0.0188 -0.0382,-0.0954 z m -1.38095,-5.37843 c 0.003,-0.0847 0.0207,-0.1019 0.0439,-0.0439 0.021,0.0525 0.0184,0.11516 -0.006,0.13931 -0.0242,0.0241 -0.0413,-0.0188 -0.0382,-0.0954 z m 0,-1.45364 c 0.003,-0.0847 0.0207,-0.10189 0.0439,-0.0439 0.021,0.0525 0.0184,0.11516 -0.006,0.13931 -0.0242,0.0242 -0.0413,-0.0188 -0.0382,-0.0954 z m 46.52191,-0.53905 c 0,-0.0999 0.0165,-0.14082 0.0367,-0.0908 0.0202,0.05 0.0202,0.13173 0,0.1817 -0.0202,0.05 -0.0367,0.009 -0.0367,-0.0908 z m -46.50439,-0.50878 c 0,-0.25984 0.0132,-0.36614 0.0293,-0.23622 0.0161,0.12992 0.0161,0.34252 0,0.47243 -0.0161,0.12992 -0.0293,0.0236 -0.0293,-0.23621 z m 46.50439,-0.43609 c 0,-0.0999 0.0165,-0.14082 0.0367,-0.0908 0.0202,0.05 0.0202,0.13173 0,0.1817 -0.0202,0.05 -0.0367,0.009 -0.0367,-0.0908 z m -1.25633,-2.67106 c -0.0904,-0.11528 -0.0878,-0.11785 0.0274,-0.0274 0.12107,0.0949 0.15958,0.15464 0.0998,0.15464 -0.0151,0 -0.0723,-0.0572 -0.12719,-0.1272 z m -0.43232,-0.50877 -0.1762,-0.19988 0.19987,0.17621 c 0.10993,0.0969 0.19988,0.18685 0.19988,0.19987 0,0.057 -0.0589,0.0106 -0.22355,-0.1762 z m -1.34368,-1.41729 -0.21347,-0.23622 0.23622,0.21348 c 0.12991,0.1174 0.23621,0.2237 0.23621,0.23621 0,0.0562 -0.06,0.007 -0.25896,-0.21347 z m -0.65646,-0.72682 -0.13846,-0.16353 0.16353,0.13846 c 0.15368,0.13011 0.19662,0.18861 0.13846,0.18861 -0.0138,0 -0.0874,-0.0736 -0.16353,-0.16354 z m -0.50877,-0.58145 -0.13846,-0.16353 0.16353,0.13845 c 0.0899,0.0762 0.16354,0.14975 0.16354,0.16354 0,0.0582 -0.0585,0.0152 -0.18861,-0.13846 z m -0.43609,-0.50877 -0.13846,-0.16353 0.16353,0.13845 c 0.0899,0.0761 0.16354,0.14974 0.16354,0.16354 0,0.0582 -0.0585,0.0152 -0.18861,-0.13846 z m -0.4748,-0.54511 c -0.0904,-0.11528 -0.0878,-0.11785 0.0274,-0.0274 0.07,0.0549 0.1272,0.1121 0.1272,0.12719 0,0.0598 -0.0597,0.0213 -0.15464,-0.0997 z m -20.21607,-0.81856 c -3.22907,-1.49216 -6.55692,-1.89019 -9.97946,-1.1936 -0.48279,0.0983 -1.19743,0.27857 -1.5881,0.40069 -0.39066,0.12211 -0.72229,0.21003 -0.73695,0.19537 -0.0353,-0.0353 1.03601,-2.01066 1.5443,-2.84759 1.19994,-1.97579 2.56002,-3.40351 4.24314,-4.45418 0.49906,-0.31154 1.65988,-0.90915 2.29157,-1.17975 l 0.3699,-0.15846 1.37446,0.61392 c 0.75595,0.33765 2.02859,0.89825 2.82808,1.24577 1.55485,0.67585 4.68796,2.20072 4.68796,2.2816 0,0.0268 -0.32499,0.32046 -0.7222,0.65248 -1.03716,0.86694 -2.29995,2.19618 -2.80697,2.95467 -0.45266,0.67717 -0.72711,1.36544 -0.66792,1.67505 0.0187,0.0981 0.0141,0.17778 -0.0103,0.1771 -0.0244,-5.5e-4 -0.3968,-0.16405 -0.82747,-0.36307 z m 20.22534,-0.0355 c 0.13561,-0.13991 0.26291,-0.25439 0.2829,-0.25439 0.02,0 -0.0746,0.11448 -0.21022,0.25439 -0.1356,0.13991 -0.26291,0.25439 -0.2829,0.25439 -0.02,0 0.0746,-0.11448 0.21022,-0.25439 z m 0.75797,-0.76316 c 0,-0.0941 0.0246,-0.11871 0.0716,-0.0716 0.0471,0.0471 0.0471,0.0962 0,0.14329 -0.0471,0.0471 -0.0716,0.0225 -0.0716,-0.0716 z"
       id="path9569-5-3"
       sodipodi:nodetypes="sssscssccssssssssssssssssssscsssscssssssssssssssssssssssssssssssssssssssssssssssssssssssssssssssssssscsssssssssssssssssssssssssssssssssssssssssssssssssssssssssssssssssssscsssscsssscsssscsssscssssssssssssssscsssssscsssssssssss" /><path
       style="fill:#286efd;stroke-width:0.0726814"
       d="m 267.08688,372.2015 c 0.10864,-0.44435 0.93467,-4.75581 1.10501,-5.76762 0.2491,-1.47964 0.22508,-1.73969 -0.20308,-2.19899 -0.78124,-0.83804 -1.26876,-1.83136 -1.54871,-3.15546 -0.0611,-0.28883 -0.20685,-1.19563 -0.32397,-2.01511 -0.30988,-2.16828 -0.27868,-2.79142 -1.65591,-5.74669 -0.99446,-2.13393 -1.4892,-4.36539 -2.13078,-6.18608 1.08514,-15.7758 2.24666,-15.77418 18.71238,-19.69407 0.57963,0.20461 8.15338,3.834 17.96146,8.60725 4.3546,2.11923 5.92278,2.91522 6.03232,3.06194 l 0.14802,0.19826 -0.61754,0.56892 -0.61755,0.56892 0.15039,0.17107 c 0.0827,0.0941 0.57332,0.66164 1.09023,1.26123 0.5169,0.59958 1.30007,1.46631 1.74037,1.92606 1.44843,1.51241 1.97976,2.25761 2.34211,3.28484 0.34989,0.9919 0.24074,2.19085 -0.30761,3.379 -0.30611,0.66327 -0.68148,1.22161 -2.36092,3.51164 -1.97253,2.68967 -3.17961,4.41054 -4.79227,6.83206 -1.93944,2.91223 -1.90194,2.86369 -3.22975,4.17996 -0.64564,0.64002 -1.54823,1.56828 -2.00575,2.06279 -0.86232,0.93203 -1.46204,1.4615 -1.6554,1.4615 -0.18226,0 -0.0821,-0.42765 0.40121,-1.71287 0.24153,-0.64227 0.46103,-1.28448 0.4878,-1.42714 0.10737,-0.57233 -0.22476,-0.41669 -1.34101,0.62843 -0.78141,0.73161 -1.10137,0.93662 -1.24016,0.7946 -0.0343,-0.035 -0.0727,-0.53105 -0.0855,-1.10223 -0.032,-1.43009 -0.13423,-1.47676 -1.04446,-0.47685 -0.74759,0.82126 -0.78727,0.8137 -1.13102,-0.21531 -0.14438,-0.4322 -0.29546,-0.81877 -0.33574,-0.85905 -0.0403,-0.0403 -0.0581,-0.20997 -0.0396,-0.37709 0.0194,-0.17518 -0.0281,-0.5501 -0.1121,-0.88531 -0.29426,-1.17387 -0.34038,-1.63126 -0.3371,-3.34335 0.003,-1.76819 0.0806,-2.52022 0.44375,-4.32456 0.19975,-0.99235 0.65151,-2.80511 0.94188,-3.77943 0.42317,-1.41996 1.57657,-5.13086 1.62034,-5.21326 0.029,-0.0545 0.19245,0.12929 0.42024,0.47243 0.6643,1.00067 1.87437,2.0795 2.74852,2.45042 0.78569,0.33339 0.97536,0.36199 2.39849,0.36168 1.22147,-2.7e-4 1.4341,-0.0183 1.84114,-0.15657 0.97777,-0.33205 1.32802,-0.74273 1.37661,-1.61417 0.0384,-0.68894 -0.14033,-1.21576 -0.58325,-1.71894 -0.57275,-0.65068 -1.3057,-1.00203 -2.32998,-1.1169 -1.66955,-0.18723 -2.7786,-1.43753 -3.2611,-3.67645 -0.17704,-0.82147 -0.25459,-2.97656 -0.14241,-3.95717 0.0432,-0.37758 0.0633,-0.70171 0.0448,-0.72029 -0.0186,-0.0186 -0.16277,0.005 -0.32041,0.0521 -0.40143,0.12027 -0.95124,0.57678 -1.39016,1.15424 -0.43938,0.57808 -1.18184,2.0666 -1.56822,3.14406 -0.25067,0.69902 -0.27311,0.82424 -0.26703,1.48997 0.007,0.81103 0.18396,1.67334 0.51954,2.53756 l 0.20904,0.53834 -0.69834,0.68421 c -1.87823,1.84025 -4.21348,3.67793 -6.70289,5.27471 -1.56523,1.00399 -3.2597,1.94293 -6.31496,3.49927 -1.61898,0.8247 -3.1253,1.61628 -3.34738,1.75906 -0.35024,0.22518 -0.50884,0.41754 -1.19604,1.45063 -0.89569,1.34651 -1.43901,2.36766 -1.6005,3.00806 -0.0605,0.23985 -0.13933,0.92669 -0.1752,1.52631 -0.0853,1.42634 -0.29594,2.07741 -1.12126,3.46627 -0.73472,1.23641 -0.96957,2.5183 -0.89294,4.87394 l 0.0443,1.36278 h -1.89595 -1.89595 z m 17.87387,-31.92198 c -0.0592,-0.30961 0.21526,-0.99788 0.66792,-1.67505 0.50702,-0.7585 1.76981,-2.08773 2.80697,-2.95468 0.39721,-0.33202 0.7222,-0.62563 0.7222,-0.65248 0,-0.0809 -3.13311,-1.60574 -4.68796,-2.2816 -0.79949,-0.34752 -2.07213,-0.90811 -2.82808,-1.24577 l -1.37446,-0.61391 -0.3699,0.15845 c -2.98821,1.28007 -4.88221,2.91299 -6.53471,5.63394 -0.50829,0.83693 -1.57958,2.81231 -1.5443,2.84758 0.0147,0.0147 0.34629,-0.0733 0.73695,-0.19537 2.63912,-0.82494 5.53545,-0.95659 8.1714,-0.37141 0.93679,0.20796 2.44701,0.72572 3.39616,1.16433 0.43067,0.19901 0.80303,0.36239 0.82746,0.36307 0.0244,5.5e-4 0.0291,-0.079 0.0104,-0.1771 z m -1.29036,31.86069 c -1.21422,-0.0818 -2.06983,-0.19307 -2.83458,-0.36849 l -0.65414,-0.15004 -0.007,-0.30063 c -0.004,-0.16534 -0.0763,-0.84028 -0.16133,-1.49987 -0.4298,-3.33436 -0.40984,-6.72419 0.0501,-8.50374 0.44287,-1.71358 0.73036,-2.03344 2.58472,-2.87578 1.34823,-0.61244 1.69342,-0.85978 2.89311,-2.07304 0.5894,-0.59606 1.08917,-1.08374 1.11061,-1.08374 0.0215,0 -0.12358,0.24092 -0.32229,0.53538 -0.9786,1.45022 -2.20515,3.73322 -2.73862,5.09743 -0.28002,0.71607 -0.28371,0.7381 -0.24953,1.48998 0.0191,0.41973 0.0337,1.12293 0.0325,1.56265 -0.002,0.78733 -0.009,0.81946 -0.45131,2.11137 -0.24704,0.72154 -0.48827,1.56347 -0.53607,1.87096 -0.21142,1.35992 0.36256,2.42235 2.01706,3.73351 0.33612,0.26636 0.61111,0.49537 0.61111,0.50891 0,0.03 -0.21836,0.0211 -1.3446,-0.0549 z m -17.60548,-1.44685 c 0,-0.17989 0.0142,-0.25348 0.0315,-0.16353 0.0173,0.0899 0.0173,0.23712 0,0.32706 -0.0173,0.0899 -0.0315,0.0163 -0.0315,-0.16353 z m 20.76712,-15.65397 c 0,-0.0151 0.0572,-0.0723 0.1272,-0.12719 0.11527,-0.0904 0.11784,-0.0878 0.0274,0.0274 -0.0949,0.12107 -0.15464,0.15957 -0.15464,0.0998 z"
       id="path9571-3-6"
       sodipodi:nodetypes="ssssssccsscccssssssssssssssssssssssssssssssssssssssscssssssssscccssssssscsssssscsssscssssssssssssssssssssssss" /><path
       style="fill:#1c4fb4;stroke-width:0.0726814"
       d="m 266.5784,372.07578 c -0.43716,-0.25073 -0.5773,-0.54485 -0.50124,-1.05202 0.12235,-0.81593 -0.23402,-2.35881 -1.04798,-4.53711 -0.31903,-0.85377 -0.67547,-1.93275 -0.7921,-2.39773 -0.49391,-1.96922 -0.48258,-3.92656 0.0351,-6.06731 0.0925,-0.38231 0.11142,-0.70226 0.0818,-1.38095 -0.0411,-0.94323 -0.15542,-1.46267 -0.70633,-3.20916 -0.60088,-1.90491 -0.81577,-3.12187 -0.69429,-3.93196 l 0.0534,-0.356 0.24049,0.83571 c 0.13227,0.45964 0.47551,1.44078 0.76275,2.18032 1.19906,3.08709 1.38447,3.58841 1.59121,4.30244 0.24469,0.84512 0.38495,1.57293 0.55753,2.89303 0.33411,2.55568 0.78553,3.75941 1.83002,4.87985 0.42816,0.4593 0.45218,0.71935 0.20308,2.19899 -0.19076,1.13309 -1.02596,5.48103 -1.10093,5.73128 -0.05,0.16696 -0.0724,0.16305 -0.51256,-0.0894 z m 13.04853,-0.71877 c -0.22068,-0.13995 -0.37796,-0.31326 -0.47822,-0.52694 -0.20856,-0.4445 -0.68654,-2.17505 -2.16341,-7.83264 -0.70317,-2.69372 -1.34279,-5.12971 -1.42138,-5.41331 -0.0786,-0.28359 -0.14289,-0.55436 -0.14289,-0.6017 0,-0.14316 0.63212,-0.49494 3.70676,-2.06282 3.05861,-1.55972 4.75368,-2.49943 6.31496,-3.50088 2.494,-1.59972 4.82534,-3.4349 6.71085,-5.28264 0.38847,-0.38067 0.7196,-0.67745 0.73587,-0.65951 0.0163,0.0179 0.0926,0.15729 0.16975,0.30965 0.13971,0.2761 0.13964,0.27861 -0.0216,0.76316 -0.81349,2.445 -1.8638,6.05581 -2.24499,7.71796 -0.80569,3.51311 -0.9027,6.35807 -0.29657,8.69722 0.21369,0.82465 0.11364,1.19074 -0.52012,1.90308 l -0.34569,0.38855 -0.44639,-0.67928 c -0.9468,-1.44072 -1.54557,-2.71115 -1.84562,-3.91587 -0.21909,-0.87965 -0.2708,-2.4277 -0.1116,-3.34108 0.20598,-1.18173 0.74463,-2.59854 1.46453,-3.85212 l 0.2713,-0.47243 -0.53829,0.5029 c -0.29606,0.27659 -1.30689,1.27999 -2.2463,2.22977 -1.06189,1.07361 -1.87467,1.83271 -2.14856,2.00664 -0.2423,0.15386 -0.86373,0.47199 -1.38095,0.70694 -1.56347,0.7102 -1.95854,1.0416 -2.28938,1.9204 -0.4545,1.20725 -0.64977,2.65299 -0.64977,4.8107 0,1.94755 0.12172,3.48013 0.48031,6.04754 0.0433,0.3098 0.0337,0.34524 -0.0928,0.34524 -0.0776,0 -0.28898,-0.0938 -0.46984,-0.20853 z m 1.13341,-15.72729 0.22083,0.1972 -0.19874,-0.21372 -0.19873,-0.21372 0.19873,-0.22084 0.19874,-0.22083 -0.22083,0.19874 -0.22084,0.19873 -0.19708,-0.18056 -0.19709,-0.18057 0.18057,0.19709 0.18056,0.19708 -0.1972,0.22083 -0.1972,0.22084 0.21372,-0.19874 0.21372,-0.19874 z m 16.95575,-6.13482 c 0.05,-0.0202 0.13174,-0.0202 0.18171,0 0.05,0.0202 0.009,0.0367 -0.0909,0.0367 -0.0999,0 -0.14083,-0.0165 -0.0909,-0.0367 z m 1.88972,0 c 0.05,-0.0202 0.13174,-0.0202 0.18171,0 0.05,0.0202 0.009,0.0367 -0.0909,0.0367 -0.0999,0 -0.14082,-0.0165 -0.0908,-0.0367 z m -2.39395,-0.0742 c 0.0525,-0.021 0.11516,-0.0184 0.13931,0.006 0.0241,0.0241 -0.0188,0.0413 -0.0954,0.0382 -0.0847,-0.003 -0.1019,-0.0207 -0.0439,-0.0439 z m 4.22916,-0.55925 c 0,-0.0151 0.0572,-0.0723 0.12719,-0.12719 0.11528,-0.0904 0.11785,-0.0878 0.0274,0.0274 -0.0949,0.12107 -0.15464,0.15957 -0.15464,0.0998 z m -6.40525,-0.53584 c -0.0904,-0.11528 -0.0878,-0.11785 0.0274,-0.0274 0.12107,0.0949 0.15958,0.15463 0.0998,0.15463 -0.0151,0 -0.0723,-0.0572 -0.1272,-0.12719 z m -0.50877,-0.43609 c -0.0904,-0.11528 -0.0878,-0.11785 0.0274,-0.0274 0.07,0.0549 0.12719,0.1121 0.12719,0.12719 0,0.0598 -0.0597,0.0213 -0.15464,-0.0998 z m -0.54274,-0.61779 -0.13846,-0.16354 0.16353,0.13846 c 0.15368,0.13012 0.19663,0.18861 0.13846,0.18861 -0.0138,0 -0.0874,-0.0736 -0.16353,-0.16353 z m 7.89859,-0.0969 c 0.003,-0.0847 0.0207,-0.10189 0.0439,-0.0439 0.021,0.0525 0.0184,0.11515 -0.006,0.1393 -0.0242,0.0242 -0.0413,-0.0188 -0.0382,-0.0954 z m -8.15534,-0.23016 c -0.0904,-0.11528 -0.0878,-0.11785 0.0274,-0.0274 0.07,0.0549 0.12719,0.1121 0.12719,0.12719 0,0.0598 -0.0597,0.0213 -0.15463,-0.0998 z m 7.63156,-0.87218 c -0.0904,-0.11528 -0.0878,-0.11785 0.0274,-0.0274 0.12107,0.0949 0.15957,0.15463 0.0998,0.15463 -0.0151,0 -0.0723,-0.0572 -0.12719,-0.12719 z m -2.29699,-1.15876 c 0.0707,-0.0184 0.16884,-0.0172 0.21805,0.003 0.0492,0.0199 -0.009,0.035 -0.12858,0.0335 -0.11992,-10e-4 -0.16018,-0.0178 -0.0895,-0.0362 z m -2.06013,-0.949 -0.17621,-0.19988 0.19988,0.17621 c 0.10993,0.0969 0.19987,0.18685 0.19987,0.19987 0,0.057 -0.0589,0.0106 -0.22354,-0.1762 z m -4.85269,-0.81767 c 0,-0.0999 0.0165,-0.14082 0.0367,-0.0908 0.0202,0.05 0.0202,0.13173 0,0.1817 -0.0202,0.05 -0.0367,0.009 -0.0367,-0.0908 z m -0.0644,-0.87218 c 0,-0.17989 0.0142,-0.25348 0.0315,-0.16353 0.0173,0.0899 0.0173,0.23712 0,0.32707 -0.0173,0.0899 -0.0315,0.0163 -0.0315,-0.16354 z m 3.54734,-1.49603 c 0.003,-0.0847 0.0207,-0.10189 0.0439,-0.0439 0.021,0.0525 0.0184,0.11516 -0.006,0.13931 -0.0242,0.0241 -0.0413,-0.0188 -0.0382,-0.0954 z m -0.0643,-0.57539 c 10e-4,-0.11993 0.0178,-0.16019 0.0362,-0.0895 0.0184,0.0707 0.0172,0.16884 -0.003,0.21805 -0.0199,0.0492 -0.035,-0.009 -0.0335,-0.12858 z m -0.0615,-1.41729 c 0,-0.33979 0.0125,-0.47879 0.0278,-0.3089 0.0153,0.1699 0.0153,0.4479 0,0.61779 -0.0153,0.1699 -0.0278,0.0309 -0.0278,-0.30889 z m -1.15196,-1.52631 c 0.15614,-0.1599 0.30024,-0.29073 0.32023,-0.29073 0.02,0 -0.0914,0.13083 -0.24755,0.29073 -0.15613,0.1599 -0.30024,0.29072 -0.32022,0.29072 -0.02,0 0.0914,-0.13082 0.24754,-0.29072 z m 1.21611,0.0727 c 0,-0.13991 0.015,-0.19715 0.0332,-0.12719 0.0183,0.07 0.0183,0.18443 0,0.25438 -0.0183,0.07 -0.0332,0.0127 -0.0332,-0.12719 z m 0.0673,-0.65414 c 0,-0.0999 0.0165,-0.14082 0.0367,-0.0908 0.0202,0.05 0.0202,0.13174 0,0.18171 -0.0202,0.05 -0.0367,0.009 -0.0367,-0.0909 z"
       id="path9573-5-1" /><path
       style="fill:#140f0e;stroke-width:0.0726814"
       d="m 280.30926,355.60915 0.1972,-0.22083 -0.18056,-0.19708 -0.18057,-0.19709 0.19709,0.18057 0.19708,0.18056 0.22084,-0.19873 0.22083,-0.19874 -0.19874,0.22083 -0.19873,0.22084 0.19873,0.21372 0.19874,0.21372 -0.22083,-0.1972 -0.22084,-0.19721 -0.21372,0.19874 -0.21372,0.19874 z m 17.22185,-6.14962 c -1.78869,-0.25633 -3.59588,-1.8201 -4.63257,-4.00857 -0.45387,-0.95814 -0.68686,-1.87064 -0.73672,-2.88535 l -0.0411,-0.83584 0.34399,-0.94486 c 0.86395,-2.37302 1.93268,-3.88923 2.94631,-4.17993 l 0.2258,-0.0648 -0.0597,0.66871 c -0.0328,0.3678 -0.055,1.17567 -0.0492,1.79528 0.0268,2.88571 0.81527,4.77415 2.32943,5.57931 0.33152,0.17629 0.63536,0.26551 1.18294,0.34739 0.40527,0.0606 0.87409,0.16368 1.04184,0.22909 0.85295,0.33257 1.48275,0.97889 1.73095,1.77636 0.3273,1.0516 -0.004,1.84669 -0.94156,2.26153 -0.69399,0.30699 -2.20054,0.42499 -3.34043,0.26164 z"
       id="path9575-6-0" /></g></g><text
   xml:space="preserve"
   style="font-size:40px;line-height:1.25;font-family:'Special Elite';-inkscape-font-specification:'Special Elite'"
   x="200.97388"
   y="107.20827"
   id="text1532"><tspan
     sodipodi:role="line"
     id="tspan1530"
     x="200.97388"
     y="107.20827" /></text><text
   xml:space="preserve"
   id="text844"
   style="font-size:40px;line-height:1.25;font-family:'Special Elite';-inkscape-font-specification:'Special Elite';white-space:pre;shape-inside:url(#rect846);display:inline" /></svg>
