<svg xmlns="http://www.w3.org/2000/svg" width="100" height="100"><path d="M99.945 50c0 27.586-22.36 49.945-49.945 49.945C22.414 99.945.055 77.585.055 50 .055 22.414 22.415.055 50 .055 77.586.055 99.945 22.415 99.945 50Zm0 0" style="stroke:none;fill-rule:nonzero;fill:#008de4;fill-opacity:1"/><path d="M60.688 22.027H35.59l-2.078 11.621 22.648.032c11.156 0 14.453 4.05 14.36 10.761-.055 3.45-1.54 9.27-2.184 11.157-1.719 5.027-5.25 10.777-18.484 10.754l-22.016-.012-2.09 11.633h25.04c8.831 0 12.585-1.028 16.562-2.86 8.824-4.074 14.074-12.781 16.172-24.136 3.128-16.914-.774-28.95-22.832-28.95" style="stroke:none;fill-rule:nonzero;fill:#fff;fill-opacity:1"/><path d="M24.762 44.168c-6.575 0-7.52 4.285-8.133 6.871-.817 3.395-1.082 4.762-1.082 4.762h25.695c6.574 0 7.516-4.285 8.133-6.871.816-3.395 1.082-4.762 1.082-4.762Zm0 0" style="stroke:none;fill-rule:nonzero;fill:#fff;fill-opacity:1"/></svg>