<svg xmlns="http://www.w3.org/2000/svg" xml:space="preserve" id="Layer_1" x="0" y="0" style="enable-background:new 0 0 512 512" version="1.1" viewBox="0 0 512 512"><style>.st1{fill:#9b1c2e}</style><circle cx="256" cy="256" r="247.2" style="fill:#fefefe"/><path d="M153.9 364.3c5.8 0 11-3.1 13.7-8.2l36.5-69.1h-56.2c-8.5 0-15.5-6.9-15.5-15.5v-30.9c0-8.5 6.9-15.5 15.5-15.5h88.9l69.1-131c2.6-5.1 7.9-8.2 13.7-8.2h116.2C390.5 38.2 326.7 8.5 256 8.5 119.3 8.5 8.5 119.3 8.5 256c0 38.8 9 75.6 24.9 108.3h120.5z" class="st1"/><path d="M358.1 147.7c-5.8 0-11 3.1-13.7 8.2L307.9 225h56.2c8.5 0 15.5 6.9 15.5 15.5v30.9c0 8.5-6.9 15.5-15.5 15.5h-88.9l-69.1 131c-2.6 5.1-7.9 8.2-13.7 8.2h-116c45.1 47.7 108.9 77.5 179.6 77.5 136.7 0 247.5-110.8 247.5-247.5 0-38.8-9-75.6-24.9-108.3H358.1z" class="st1"/></svg>