<svg clip-rule="evenodd" fill-rule="evenodd" height="100" stroke-linejoin="round" stroke-miterlimit="2" viewBox="0 0 100 100" width="100" xmlns="http://www.w3.org/2000/svg"><g transform="matrix(.07662894 0 0 .07662894 20.885302 37.498141)"><path d="m568.70943 81.41607c-100.58623-44.74804-183.04981-81.52581-183.25239-81.7284-.20258-.20258-.25476-93.15718-.11595-206.56577l.25239-206.19743 183.29544 287.65438c100.81249 158.20991 183.16249 287.77654 183 287.92583-.16249.1493-82.59326-36.34058-183.17949-81.08861z" fill="#b6f9f4"/><path d="m256.09348 587.39328c-62.975-83.52075-143.6375-190.49895-179.249999-237.72937-35.6125-47.23042-64.75-86.04925-64.75-86.26407 0-.21481 2.1375.91232 4.75 2.50474s83.05 48.42166 178.749999 104.06496c95.7 55.64331 174.33915 101.4979 174.75367 101.89911.41451.4012.63951 60.72593.5 134.05493l-.25367 133.3255zm-251.999999-424.88393c0-.25091 1.962749-3.50774 4.361665-7.23739 2.398915-3.72965 83.917115-131.65618 181.151544-284.28118 97.23443-152.625 177.84668-279.06696 179.13833-280.98213l2.34846-3.48214v206.60208 206.60207l-177.75 79.07804c-97.762499 43.49292-180.337499 80.22077-183.499999 81.61745s-5.75 2.33412-5.75 2.0832z" fill="#edcabf"/><path d="m385.09348 605.83438v-133.55633l178.75-104.00883c98.3125-57.20486 178.88271-103.89929 179.04491-103.7654.1622.1339-36.47919 49.01074-81.42532 108.6152-44.94612 59.60447-125.12731 165.97176-178.18041 236.37176s-96.84921 128.4275-97.32468 128.95c-.48643.5345-.8645-57.4589-.8645-132.6064zm0-403.18186v-187.33826l184.5 82.00653c101.475 45.1036 184.5 82.29611 184.5 82.65004 0 .61127-367.41634 210.01995-368.48884 210.01995-.28114 0-.51116-84.30222-.51116-187.33826zm385.8125 29.65515c.72187-.28887 1.58438-.25335 1.91667.0789.33229.33229-.25834.56864-1.3125.52522-1.16495-.048-1.4019-.28494-.60417-.60416z" fill="#c8b2f4"/><path d="m372.96592 765.24078c-1.24387-1.5861-1.2085-1.6214.37756-.3776 1.66575 1.3064 2.19548 2.1276 1.37244 2.1276-.20765 0-.99515-.7875-1.75-1.75zm8.12756 1.3724c0-.2076.7875-.9951 1.75-1.75 1.58606-1.2438 1.62143-1.2085.37756.3776-1.30637 1.6657-2.12756 2.1955-2.12756 1.3724zm-195-481.14055c-100.924999-57.45338-183.949999-104.62884-184.499999-104.83437-.55-.20552-.775-.57912-.5-.83023s78.575-35.1573 173.999999-77.56931c95.425-42.41202 178.5625-79.37096 184.75-82.13099l11.25-5.01823v187.45064c0 103.09785-.3375 187.43771-.75 187.42191s-83.325-47.03604-184.25-104.48942zm-207.921052-46.06518c.04798-1.16495.284941-1.4019.604167-.60417.288871.72187.253344 1.58438-.07895 1.91667-.332292.33229-.568641-.25834-.52522-1.3125zm799.000002 0c.048-1.16495.28494-1.4019.60416-.60417.28887.72187.25335 1.58438-.0789 1.91667-.33229.33229-.56864-.25834-.52522-1.3125zm-405.07895-680.79423c0-.20765.7875-.99515 1.75-1.75 1.58606-1.24387 1.62143-1.2085.37756.37756-1.30637 1.66575-2.12756 2.19548-2.12756 1.37244zm9.87244-1.37244c-1.24387-1.58606-1.2085-1.62143.37756-.37756 1.66575 1.30637 2.19548 2.12756 1.37244 2.12756-.20765 0-.99515-.7875-1.75-1.75z" fill="#86a7ee"/><path d="m373.68514 764.74078c-1.85843-1.7875-18.60298-23.5-37.2101-48.25s-78.79079-104.625-133.74149-177.5c-54.95069-72.875-109.735599-145.55-121.744239-161.5-12.008635-15.95-39.855505-52.85-61.881931-82-36.608844-48.44852-40.025112-53.29787-39.780973-56.46858.201276-2.61405.954164-3.84587 3.05599-5 2.648909-1.45454 3.09253-1.36723 8.836816 1.73926 3.326345 1.79888 54.271333 31.32694 113.211087 65.61792 58.93975 34.29099 144.40148 84.00668 189.91497 110.47932 45.51348 26.47264 83.20326 48.13208 83.75506 48.13208.84531 0 112.49684-64.74829 341.92057-198.28455 25.53508-14.86271 47.65216-27.4854 49.14907-28.05042 2.13976-.80767 3.27773-.66296 5.32258.67688 5.82743 3.81828 5.73194 3.97563-35.89962 59.15809-111.19396 147.38712-302.61088 401.3176-331.30219 439.5-20.49639 27.2766-26.93933 35-29.19726 35-.56615 0-2.54991-1.4625-4.40834-3.25zm-2.6352-159-.0435-134.25-179.54626-104.32687c-98.750439-57.37978-179.653841-104.17978-179.785336-104-.225785.30869 358.637296 476.68427 359.168666 476.78127.1375.025.23041-60.3669.20646-134.2044zm195.48869-106.07877c97.75186-129.70582 177.5786-235.95301 177.39275-236.10487-.18584-.15187-80.8879 46.59275-179.3379 103.87693l-179 104.15304-.25365 133.92767c-.24741 130.6265-.20779 133.879 1.60724 131.9519 1.0235-1.0868 81.8397-108.0988 179.59156-237.80467zm-194.94515-93.12429c-3.14457-1.8671-223.73865-127.39729-367.836236-209.3191-25.513058-14.50458-27.053086-15.83943-24.330875-21.08931.752482-1.45119 26.483831-42.01353 57.180774-90.13853 53.971488-84.61357 106.245357-166.63157 257.487907-404 39.42451-61.875 73.33974-115.08524 75.36719-118.24498 2.02745-3.15973 4.82465-6.49086 6.21599-7.40251 2.38525-1.56287 2.68053-1.54495 5.17015.31382 1.45223 1.08424 29.00807 43.34037 61.23519 93.90251 32.22713 50.56214 91.85315 144.13116 132.50226 207.93116 40.64912 63.8 102.90179 161.45 138.33928 217 45.01108 70.55707 64.44233 101.84324 64.46675 103.79762.0192 1.53869-.60255 3.3891-1.38171 4.11202-.77917.72292-41.01667 23.82164-89.41667 51.33047-48.4 27.50884-133.45 75.87627-189 107.48317s-104.69689 59.56176-109.21531 62.12191c-4.51842 2.56014-9.24342 4.63725-10.5 4.61579-1.25658-.0215-4.08469-1.10778-6.28469-2.41404zm203.73956-123.7948c98.85677-56.23868 179.74427-102.48212 179.75-102.76321.006-.28109-82.90206-37.36783-184.23956-82.41498s-184.5875-82.08122-185-82.29795c-.4125-.21672-.75 84.24163-.75 187.68521v188.07925l5.25-3.01809c2.8875-1.65995 86.1328-49.03156 184.98956-105.27023zm-204.23956-80.20278v-187.45064l-11.25 5.01823c-6.1875 2.76003-89.325 39.71897-184.75 82.13099-95.424999 42.41201-173.724999 77.3182-173.999999 77.56931-.275.25111-.05.62471.5.83023.55.20553 83.575 47.38099 184.499999 104.83437 100.925 57.45338 183.8375 104.47362 184.25 104.48942s.75-84.32406.75-187.42191zm-183-121.02706c99.825-44.38385 181.83857-81.01948 182.25239-81.4125.41381-.39301.63881-93.616.5-207.16219l-.25239-206.44761-170.43633 267.5c-93.73998 147.125-176.449279 276.89568-183.798438 288.3793-8.52655 13.32337-12.711277 20.69141-11.563669 20.36011.989141-.28555 83.473438-36.83325 183.298437-81.21711zm563.20451 78.7277c-1.06242-1.5125-79.90872-125.15-175.21401-274.75-95.30528-149.6-177.15417-278.05612-181.88642-285.45805l-8.60408-13.45805-.26897 206.45805c-.2162 165.95068-.02 206.61784 1 207.27244 2.46641 1.58288 364.28826 162.5009 365.58706 162.59257.92324.0652.73943-.73076-.61358-2.65696z" fill="#3441bf"/></g></svg>