<svg enable-background="new 0 0 423 230" height="75" viewBox="0 0 441 75" width="441" xmlns="http://www.w3.org/2000/svg"><text x="200.97388" y="107.20827"><tspan x="200.97388" y="107.20827"/></text><text/><g transform="matrix(.45556918 0 0 .45556918 -16.696448 -32.865809)"><path d="m212.26641 215.93619c.39216-2.28752 1.81242-7.378.62973-8.50565-4.51322-8.20589-6.94918-16.21258-8.49884-24.48325-1.82105-9.71877-8.50586-19.95619-10.5795-30.05852-2.55779 9.34683 6.87105 21.85205 4.41318 31.4649-2.2506 8.80195-2.06454 17.19644.97192 25.84757 2.23296 6.36207 4.09183 9.62502 5.14891 16.30268.9322 5.88924-1.685 6.49539 3.82901 8.81665 2.41228-7.91002 3.72065-11.44126 4.08541-19.38438z" fill="#1d50b5"/><path d="m191.61804 143.81652c.33142.007.66283.0148.99418.0221.1967 2.58393.39352 5.16785 1.09262 8.6309 2.14614 10.63114 8.48864 21.25037 10.30958 30.96914 1.54977 8.27067 1.02185 17.19931 7.99968 23.85613 1.18215 1.12766.52411 4.59741.13238 6.88493-1.21486 7.08611-2.71145 14.12387-4.09883 21.18042h13.47938c-.35646-8.09972-.84975-16.17498 2.83205-21.84914 2.85015-4.39246 4.29939-8.6278 4.18087-12.71889-.2451-8.46027 4.35099-12.18202 8.95261-20.00033 2.10341 7.94691 3.97525 15.06464 5.87335 22.1753 1.5194 5.69149 2.94024 11.41409 4.65099 17.0481 1.27874 4.21135 1.86551 10.66463 4.67361 11.95438 5.74478 2.63865 12.77678 2.47477 19.34001 2.95266-11.13201-8.10429-11.67894-12.03197-7.44139-22.71429 1.95399-5.42781 1.47062-6.75883.8072-13.76022 1.51885-6.29359 12.12196-27.08888 20.65543-32.44619-9.44785 16.66306-9.4123 27.76779 1.3552 43.7442.94671.18002 2.73075-3.75946 3.68189-3.57829 1.04159.1984 1.71063 5.98962 2.75928 6.18891 1.78497.33923 3.95717-4.91286 5.77005-4.57301 1.41454.26518-.26396 7.94589 1.17241 8.21011 1.85815.3418 6.83956-6.7334 8.74262-6.3955 1.38753.24633-4.65848 11.96791-3.24296 12.211 2.0697.39151 9.93079-9.57928 11.45436-10.89089 3.87524-2.88532 6.36733-6.19129 9.02992-10.00799 8.03471-12.63959 17.46945-25.62294 25.76084-36.81788 8.23965-11.1516 7.36313-18.93377-2.55752-28.75277-4.00183-3.96083-7.52718-8.4031-11.43403-12.81219 1.76248-1.62138 3.03646-2.79331 4.41568-4.0621-.57285-.64914-.89646-1.3109-1.41825-1.56476-27.52858-13.39022-55.00719-26.887419-82.71057-39.906549-3.08012-1.44751-7.9888-1.35747-11.13963.0526-45.33523 20.28923-95.01259 25.603989-141.7127 40.979869-6.471856 2.13085-8.180936 3.69003-10.714136 8.5403.40219 1.67328 1.27179 2.56658 1.69255 3.38951.17228 7.82164.27466 15.63773.40237 24.28304-.0449.82368-.0135.62497-.0135.62497s27.817686.90898 40.855966 1.04607c0 0 .22141.0424.22781-.26002.66387-1.58707 1.40897-2.52546 2.41176-3.96257 2.17165-2.83908 4.07989-5.92559 6.25155-8.76465.40157.21946.80308.43891 1.20465.65837-.37249 2.70725-.84256 5.18196-1.30482 8.98235 10.59775 8.17841 25.55626 16.53559 38.64428 17.1966" fill="#2970ff"/><g fill="#1d50b5"><path d="m185.74983 169.54066c-13.04326-1.18855-28.20878-9.29213-38.70851-16.9323-2.5985 7.1088-4.66956 12.79122-6.77069 19.23203-.53407 1.63734-.0148 5.15342.88627 5.49008 10.94429 4.09001 25.91846 8.86216 37.70696 12.87797 2.412-7.22417 4.71044-13.75952 6.88597-20.66778z"/><path d="m98.301084 202.63703c-.0326-4.85026-.79829-9.46219-.91689-13.97329-.18576-7.06775-.0805-16.15818-.338-23.7514-5.20547 12.29864-11.963 26.79142-14.52024 40.0759-1.65891 8.61837 2.73125 18.42865 4.64318 27.65685.15981.77142 2.29574 1.83733 3.14124 1.57343.92501-.28872 2.03823-1.99129 1.99236-3.03015-.21883-4.96468-.34427-10.01057-1.36925-14.8438-1.40381-6.61819.59396-10.98484 7.3676-13.70754zm40.109266-46.71358c-12.91592-.59699-27.22698-1.42883-41.073256-1.11897-.16257 2.81329-.31094 4.63941-.53316 6.16494.0178 1.44976.0344 2.89954.26028 5.41434.23113 8.13708.13379 15.21223.31998 22.27998.11873 4.5111.51347 9.46658.86284 13.97162 12.559116-5.57439 23.263596-13.59726 29.061316-26.80879 2.90328-6.61572 7.39035-13.12853 11.102-19.90312z" stroke-width="1.36488"/><path d="m135.01259 200.87278c2.90679-2.42938 5.81358-4.85874 9.50352-7.9426-4.0058-2.47811-7.19402-4.45048-10.51504-6.50497-5.91989 6.30164-11.63165 12.26659-17.15286 18.40306-.70021.77808-.73268 2.51632-.51077 3.70439 1.19991 6.42246 2.30465 12.88732 4.04632 19.17012.58542 2.11191 2.94651 3.73164 4.49592 5.57638.79355-2.12991 2.17307-4.24017 2.24525-6.39424.11191-3.36094-.34026-6.82874-1.13-10.1126-1.396-5.80434-.20936-10.29623 5.94793-13.61543 1.48552-.54953 1.97563-1.627 3.06973-2.28411z"/></g><path d="m97.072024 130.00852c-.30123-1.26354.668944-5.14392.06262-6.39087-6.77868 7.71635-7.142952 9.73871-13.469332 17.347-2.45473 2.95217-5.41994 6.12946-8.30109 9.72029.0191 2.46188.5136 4.37686.97359 6.21237 9.07238-11.4205 11.542108-15.02766 20.734208-26.88879z" fill="#2970ff"/><path d="m73.099916 147.08399c-6.85701-8.61909-17.35355-8.30456-26.3765 1.35949.36499 1.87866.94942 3.36785 1.20139 3.34639 7.54013-.64236 15.0743-1.40067 22.57514-2.3981.89888-.11956 1.80574-1.40064 2.59997-2.30778z" fill="#2970ff"/><path d="m73.236906 147.03122c-1.13431.65342-1.83808 2.24103-2.73696 2.36055-7.50084.99743-15.03501 1.75574-22.57514 2.3981-.25197.0215-.67401-1.95428-1.21436-3.40779-4.41703 3.91601-5.87445 8.91241-4.49561 15.05047 7.33827-3.83878 14.03793-7.42526 20.81495-10.85891 4.28945-2.17326 8.25332-3.13668 9.68455 3.42513.14246.65313 2.24482.87883 3.78193.95974-.11603-2.17867-.57558-4.01418-1.05997-6.33194-.6359-1.43537-1.24751-2.38851-2.19939-3.59535z" fill="#1d50b5"/><path d="m271.49736 122.7219c-1.29362-4.18978 5.7511-12.20519 14.88639-19.4355-11.75744-6.327707-18.77341-8.737067-31.61795-14.660911-17.54791 7.244769-22.06395 15.629691-30.11485 30.725951 18.41365-6.21974 32.76607-3.67993 46.84641 3.37046z" fill="#70cbff"/><path d="m250.59871 229.70377c-1.73956-4.33377-8.70538-32.71819-13.10892-48.90727 10.30501-7.0648 38.05799-15.5388 64.12906-42.93375-3.89695 16.06035-16.40046 43.70628-10.63867 64.4583 1.02101 3.67729-.22732 4.74455-3.06191 7.98052-5.254-7.89091-16.13763-21.94249-2.31644-43.54553 0 0-7.55665 7.24256-14.70022 14.58803-5.29727 5.44699-12.76278 5.06829-15.30499 10.35207-5.93544 12.33636-.85967 41.06091-.85967 41.06091-2.12282-.43228-3.63878-1.59736-4.13824-3.05328z" fill="#1d50b5"/><path d="m296.75969 126.83614c-1.18756 11.91544 8.22923 25.78036 18.45716 27.51431 4.39659.74543 14.42783.92362 15.90364-4.37245 1.44294-5.17802-2.66106-11.58163-11.09706-11.70047-15.07-3.20765-10.79453-29.5112-10.79453-29.5112s-6.5057-.77276-12.46921 18.06981z" fill="#15100e"/></g><g transform="matrix(1.24157014 0 0 1.24157014 649.087505 -43.38437)"><g stroke-width="1.2771"><path d="m-365.84358 67.433147h3.67806v25.54205h-3.67806zm-.66409-7.764783q0-1.226018.66409-1.992279.71518-.766262 1.83903-.766262 1.12385 0 1.83903.766262.76626.715177.76626 1.992279 0 1.226019-.76626 1.941196-.71518.664093-1.83903.664093-1.12385 0-1.83903-.715177-.66409-.715177-.66409-1.890112z"/><path d="m-355.78006 88.786301q1.02168.613009 2.40095 1.072766 1.43036.408673 2.9118.408673 1.68577 0 2.86071-.817346 1.17493-.86843 1.17493-2.758541 0-1.583607-.71518-2.605289-.71517-1.021682-1.83903-1.839028-1.07276-.817345-2.34986-1.481439-1.27711-.715177-2.40096-1.685775-1.07276-.970598-1.78794-2.298784-.71518-1.328187-.71518-3.371551 0-3.269382 1.73686-4.904073 1.78795-1.685776 5.00624-1.685776 2.09445 0 3.62697.408673 1.53253.357589 2.65638 1.021682l-.9706 3.065046q-.9706-.510841-2.2477-.817346-1.2771-.357588-2.60529-.357588-1.83903 0-2.70746.766261-.81734.766262-.81734 2.400953 0 1.277102.71518 2.196616.71517.86843 1.78794 1.634691 1.12385.715178 2.40095 1.481439 1.2771.766262 2.34987 1.839028 1.12385 1.021682 1.83903 2.50312.71517 1.430355.71517 3.626971 0 1.430355-.45975 2.707458-.45976 1.277102-1.43036 2.2477-.91951.919514-2.34987 1.481439-1.37927.561925-3.26938.561925-2.2477 0-3.88239-.459757-1.63469-.408673-2.75854-1.12385z"/><path d="m-339.22885 80.204172q0-6.896353 2.34987-10.114651 2.40096-3.269383 6.79419-3.269383 4.69973 0 6.89635 3.320467 2.2477 3.320466 2.2477 10.063567 0 6.947438-2.40095 10.165736-2.40095 3.218298-6.7431 3.218298-4.69974 0-6.94744-3.320466-2.19662-3.320467-2.19662-10.063568zm3.83131 0q0 2.2477.25542 4.086728.30651 1.839028.91952 3.167214.66409 1.328187 1.68577 2.094448 1.02168.715178 2.45204.715178 2.65637 0 3.98456-2.349869 1.32818-2.400953 1.32818-7.713699 0-2.196616-.3065-4.035644-.25542-1.890111-.91951-3.218298-.61301-1.328186-1.6347-2.043364-1.02168-.766261-2.45203-.766261-2.60529 0-3.98456 2.400952-1.32819 2.400953-1.32819 7.662615z"/><path d="m-302.95918 92.975197v-15.58065q0-3.831308-.91951-5.517083-.86843-1.736859-3.16721-1.736859-2.04337 0-3.37155 1.226018-1.32819 1.226018-1.9412 3.013962v18.594612h-3.67805v-25.54205h2.65637l.66409 2.707458h.15325q.9706-1.379271 2.60529-2.349869 1.68578-.970598 3.98456-.970598 1.63469 0 2.86071.459757 1.2771.459757 2.09445 1.583607.86843 1.072766 1.2771 2.911794.45976 1.839027.45976 4.648653v16.551248z"/></g><path d="m-373.21356 61.302524q0 1.517952-.3503 3.035905-.3503 1.517953-1.10927 2.860758-.75898 1.342804-1.92663 2.393694-1.10928 1.050891-2.744 1.576336v.233531q1.40119.291914 2.68561.992508 1.28442.642211 2.27693 1.868249.99251 1.167657 1.57634 2.919141.58383 1.693101.58383 4.086796 0 3.152671-.99251 5.487983-.99251 2.276929-2.74399 3.736499-1.6931 1.45957-3.97003 2.160164-2.21855.700593-4.72901.700593-.81736 0-1.92663 0-1.05089 0-2.27693-.116765-1.22604-.05838-2.45208-.233531-1.16766-.116766-2.16016-.40868v-40.22575q1.75148-.350297 4.08679-.583828 2.3937-.233531 5.13769-.233531 1.98501 0 3.97003.408679 1.98501.350297 3.56135 1.401188 1.57634 1.05089 2.51046 2.977523.99251 1.868249.99251 4.962538zm-11.09273 28.023744q1.57633 0 2.91914-.467062 1.3428-.525445 2.33531-1.517953 1.05089-.992508 1.63472-2.393695.58382-1.45957.58382-3.386202 0-2.393695-.75897-3.853265-.7006-1.517953-1.86825-2.335312-1.16766-.81736-2.68561-1.109274-1.45957-.291914-3.03591-.291914h-3.91164v14.945998q.35029.116765.87574.175148.58383.05838 1.22604.116766.70059.05838 1.40118.116765.7006 0 1.28443 0zm-2.3937-19.149559q.81736 0 1.86825-.05838 1.05089-.05838 1.75149-.175149 2.16016-.875742 3.67811-2.802374 1.57634-1.985015 1.57634-4.845773 0-1.926632-.52545-3.211054-.52544-1.342804-1.45957-2.101781-.87574-.758976-2.10178-1.05089-1.22604-.350297-2.56884-.350297-1.51796 0-2.74399.116766-1.22604.05838-1.86825.175148v14.303786z" stroke-width="1.45957"/><g stroke-width="1.27786"><path d="m-247.92595 68.951071q1.48232-.920059 3.57801-1.431203 2.1468-.511144 4.49807-.511144 2.1468 0 3.42466.664487 1.32897.613373 2.04458 1.737889.76671 1.073403.97117 2.504606.25557 1.380089.25557 2.913521 0 3.066864-.15334 5.980384-.10223 2.913521-.10223 5.520355 0 1.942348.10223 3.629123.15334 1.63566.51114 3.117978h-2.81129l-.86894-3.015749h-.20446q-.76672 1.328974-2.24903 2.300147-1.48232.971174-3.98693.971174-2.76018 0-4.54918-1.891233-1.73789-1.942347-1.73789-5.315897 0-2.197919.7156-3.680237.76672-1.482317 2.09569-2.402377 1.38009-.920059 3.22021-1.27786 1.89123-.408915 4.19138-.408915.51114 0 1.02229 0 .51114 0 1.0734.05111.15334-1.584547.15334-2.811292 0-2.913521-.86894-4.089152-.86895-1.175631-3.16909-1.175631-1.43121 0-3.11798.460029-1.68678.408915-2.81129 1.073402zm11.09183 12.369684q-.51115-.05111-1.02229-.05111-.51115-.05111-1.02229-.05111-1.22675 0-2.40238.204458-1.17563.204458-2.09569.715602-.92006.511144-1.48232 1.380088-.51114.868945-.51114 2.19792 0 2.044576.97117 3.169092 1.02229 1.124517 2.60684 1.124517 2.1468 0 3.32243-1.022288 1.17564-1.022288 1.63567-2.249033z"/><path d="m-223.28883 86.892225q0 1.789004.46003 2.55572.51114.766716 1.38009.766716 1.0734 0 2.50461-.562259l.3578 2.964635q-.66449.408916-1.89124.664488-1.17563.255572-2.1468.255572-1.94235 0-3.16909-1.175632-1.17564-1.226745-1.17564-4.242495v-30.924211h3.68024z"/><path d="m-211.37918 86.892225q0 1.789004.46003 2.55572.51114.766716 1.38008.766716 1.07341 0 2.50461-.562259l.3578 2.964635q-.66449.408916-1.89123.664488-1.17563.255572-2.14681.255572-1.94234 0-3.16909-1.175632-1.17563-1.226745-1.17563-4.242495v-30.924211h3.68024z"/><path d="m-188.12214 91.236949q-1.22675 1.124516-3.11798 1.737889-1.89123.613373-3.98692.613373-2.40238 0-4.19138-.920059-1.73789-.971174-2.91352-2.709063-1.12452-1.789004-1.68678-4.242495-.51114-2.453492-.51114-5.520355 0-6.542644 2.40237-9.967308 2.40238-3.424665 6.79822-3.424665 1.4312 0 2.81129.357801 1.4312.357801 2.55572 1.431203 1.12452 1.073402 1.789 3.015749.71561 1.942348.71561 5.060326 0 .868945-.10223 1.891233-.0511.971173-.15335 2.044576h-12.98305q0 2.197919.3578 3.986923.3578 1.789004 1.12451 3.066864.76672 1.226745 1.94235 1.942347 1.22675.664487 3.01575.664487 1.38009 0 2.70906-.511144 1.38009-.511144 2.09569-1.226745zm-2.86241-13.698659q.10223-3.83358-1.0734-5.622584-1.17563-1.789004-3.22021-1.789004-2.35126 0-3.73135 1.789004-1.38009 1.789004-1.63566 5.622584z"/><path d="m-184.85091 67.417639h3.11797v-5.060326l3.68024-1.175631v6.235957h5.52036v3.322436h-5.52036v15.232091q0 2.249033.51115 3.271321.56225.971174 1.789.971174 1.02229 0 1.73789-.204458.76671-.255572 1.63566-.613373l.7156 2.913521q-1.12452.562258-2.5046.868945-1.32898.357801-2.8113.357801-2.55572 0-3.68023-1.635661-1.07341-1.686775-1.07341-5.418126v-15.743235h-3.11797z"/></g><path d="m-278.01154 79.050895.7006 6.830788h.11676l.7006-6.947553 6.53887-26.914472h2.51046l6.53887 26.972854.7006 6.889171h.0584l.81736-6.947553 5.19607-26.914472h4.37871l-9.10772 41.510172h-2.68561l-6.48049-26.914471-.81736-6.24696h-.17515l-.81736 6.305342-6.48049 26.856089h-2.74399l-9.28286-41.510172h4.729z" stroke-width="1.45957"/></g></svg>