<?xml version="1.0" encoding="UTF-8" standalone="no"?>
<svg
   version="1.1"
   id="Layer_1"
   x="0px"
   y="0px"
   width="250"
   viewBox="0 0 250.00001 250"
   enable-background="new 0 0 423 230"
   xml:space="preserve"
   sodipodi:docname="bison.svg"
   inkscape:version="1.2.2 (b0a8486541, 2022-12-01)"
   inkscape:export-filename="bisonwallet.png"
   inkscape:export-xdpi="49.152"
   inkscape:export-ydpi="49.152"
   height="250"
   xmlns:inkscape="http://www.inkscape.org/namespaces/inkscape"
   xmlns:sodipodi="http://sodipodi.sourceforge.net/DTD/sodipodi-0.dtd"
   xmlns="http://www.w3.org/2000/svg"
   xmlns:svg="http://www.w3.org/2000/svg"><defs
   id="defs1782"><rect
     x="132.91405"
     y="507.20398"
     width="117.36701"
     height="66.220131"
     id="rect846" /><style
     id="style7133">.a{fill:url(#a);}.b{fill:url(#b);}</style><linearGradient
     id="a"
     x1="153.91"
     y1="333.84"
     x2="275.60001"
     y2="212.14999"
     gradientUnits="userSpaceOnUse"><stop
       offset="0.2"
       stop-color="#2576f4"
       id="stop7135" /><stop
       offset="1"
       stop-color="#3298da"
       id="stop7137" /></linearGradient><linearGradient
     id="b"
     x1="277.17001"
     y1="299.94"
     x2="426.53"
     y2="213.71001"
     gradientUnits="userSpaceOnUse"><stop
       offset="0"
       stop-color="#36bdba"
       id="stop7140" /><stop
       offset="0.93"
       stop-color="#39d8aa"
       id="stop7142" /></linearGradient><linearGradient
     id="a-6"
     x1="153.91"
     y1="333.84"
     x2="275.60001"
     y2="212.14999"
     gradientUnits="userSpaceOnUse"><stop
       offset="0.2"
       stop-color="#2576f4"
       id="stop7135-6" /><stop
       offset="1"
       stop-color="#3298da"
       id="stop7137-4" /></linearGradient><linearGradient
     id="b-9"
     x1="277.17001"
     y1="299.94"
     x2="426.53"
     y2="213.71001"
     gradientUnits="userSpaceOnUse"><stop
       offset="0"
       stop-color="#36bdba"
       id="stop7140-5" /><stop
       offset="0.93"
       stop-color="#39d8aa"
       id="stop7142-0" /></linearGradient><style
     id="style1997">.a{fill:#fff;}.b{fill:url(#a);}.c{fill:url(#b);}</style><linearGradient
     id="a-9"
     x1="368.44"
     y1="296.17999"
     x2="512.25"
     y2="213.16"
     gradientUnits="userSpaceOnUse"
     gradientTransform="matrix(0.05762944,0,0,0.05762944,322.90613,151.60941)"><stop
       offset="0"
       stop-color="#36bdba"
       id="stop1999" /><stop
       offset="0.93"
       stop-color="#39d8aa"
       id="stop2001" /></linearGradient><linearGradient
     id="b-5"
     x1="241.10001"
     y1="330.17001"
     x2="359.10001"
     y2="212.17999"
     gradientUnits="userSpaceOnUse"
     gradientTransform="matrix(0.05762944,0,0,0.05762944,322.90613,151.60941)"><stop
       offset="0.2"
       stop-color="#2576f4"
       id="stop2004" /><stop
       offset="1"
       stop-color="#3298da"
       id="stop2006" /></linearGradient><style
     id="style14059">.a{fill:#fff;}.b{fill:#2dd8a3;}.c{fill:#2970ff;}</style></defs><sodipodi:namedview
   id="namedview1780"
   pagecolor="#505050"
   bordercolor="#ffffff"
   borderopacity="1"
   inkscape:showpageshadow="0"
   inkscape:pageopacity="0"
   inkscape:pagecheckerboard="1"
   inkscape:deskcolor="#505050"
   showgrid="false"
   inkscape:zoom="1"
   inkscape:cx="-283.5"
   inkscape:cy="258"
   inkscape:window-width="2560"
   inkscape:window-height="1029"
   inkscape:window-x="0"
   inkscape:window-y="27"
   inkscape:window-maximized="1"
   inkscape:current-layer="Layer_1"
   showguides="false" />



























































































































































































































































































































<text
   xml:space="preserve"
   style="font-size:40px;line-height:1.25;font-family:'Special Elite';-inkscape-font-specification:'Special Elite'"
   x="60.30687"
   y="-9.6612921"
   id="text1532"><tspan
     sodipodi:role="line"
     id="tspan1530"
     x="60.30687"
     y="-9.6612921" /></text><text
   xml:space="preserve"
   id="text844"
   style="font-size:40px;line-height:1.25;font-family:'Special Elite';-inkscape-font-specification:'Special Elite';white-space:pre;shape-inside:url(#rect846);display:inline"
   transform="translate(-140.66701,-116.86956)" /><rect
   style="fill:#071627;stroke-width:1.00603;fill-opacity:1.0"
   id="rect5905"
   width="250.49876"
   height="250.49876"
   x="-0.50744629"
   y="-0.5032959" /><g
   id="g11167"
   transform="matrix(0.67689713,0,0,0.67689713,-8.7967252,25.365697)"><path
     fill="#d96d50"
     opacity="1"
     stroke="none"
     d="m 212.26641,215.93619 c 0.39216,-2.28752 1.81242,-7.378 0.62973,-8.50565 -4.51322,-8.20589 -6.94918,-16.21258 -8.49884,-24.48325 -1.82105,-9.71877 -8.50586,-19.95619 -10.5795,-30.05852 -2.55779,9.34683 6.87105,21.85205 4.41318,31.4649 -2.2506,8.80195 -2.06454,17.19644 0.97192,25.84757 2.23296,6.36207 4.09183,9.62502 5.14891,16.30268 0.9322,5.88924 -1.685,6.49539 3.82901,8.81665 2.41228,-7.91002 3.72065,-11.44126 4.08541,-19.38438 z"
     id="path11145"
     style="fill:#1d50b5;fill-opacity:1;stroke-width:1.36488"
     sodipodi:nodetypes="cccccccccc" /><path
     fill="#eba24f"
     opacity="1"
     stroke="none"
     d="m 191.61804,143.81652 c 0.33142,0.007 0.66283,0.0148 0.99418,0.0221 0.1967,2.58393 0.39352,5.16785 1.09262,8.6309 2.14614,10.63114 8.48864,21.25037 10.30958,30.96914 1.54977,8.27067 1.02185,17.19931 7.99968,23.85613 1.18215,1.12766 0.52411,4.59741 0.13238,6.88493 -1.21486,7.08611 -2.71145,14.12387 -4.09883,21.18042 h 13.47938 c -0.35646,-8.09972 -0.84975,-16.17498 2.83205,-21.84914 2.85015,-4.39246 4.29939,-8.6278 4.18087,-12.71889 -0.2451,-8.46027 4.35099,-12.18202 8.95261,-20.00033 2.10341,7.94691 3.97525,15.06464 5.87335,22.1753 1.5194,5.69149 2.94024,11.41409 4.65099,17.0481 1.27874,4.21135 1.86551,10.66463 4.67361,11.95438 5.74478,2.63865 12.77678,2.47477 19.34001,2.95266 -11.13201,-8.10429 -11.67894,-12.03197 -7.44139,-22.71429 1.95399,-5.42781 1.47062,-6.75883 0.8072,-13.76022 1.51885,-6.29359 12.12196,-27.08888 20.65543,-32.44619 -9.44785,16.66306 -9.4123,27.76779 1.3552,43.7442 0.94671,0.18002 2.73075,-3.75946 3.68189,-3.57829 1.04159,0.1984 1.71063,5.98962 2.75928,6.18891 1.78497,0.33923 3.95717,-4.91286 5.77005,-4.57301 1.41454,0.26518 -0.26396,7.94589 1.17241,8.21011 1.85815,0.3418 6.83956,-6.7334 8.74262,-6.3955 1.38753,0.24633 -4.65848,11.96791 -3.24296,12.211 2.0697,0.39151 9.93079,-9.57928 11.45436,-10.89089 3.87524,-2.88532 6.36733,-6.19129 9.02992,-10.00799 8.03471,-12.63959 17.46945,-25.62294 25.76084,-36.81788 8.23965,-11.1516 7.36313,-18.93377 -2.55752,-28.75277 -4.00183,-3.96083 -7.52718,-8.4031 -11.43403,-12.81219 1.76248,-1.62138 3.03646,-2.79331 4.41568,-4.0621 -0.57285,-0.64914 -0.89646,-1.3109 -1.41825,-1.56476 -27.52858,-13.39022 -55.00719,-26.887419 -82.71057,-39.906549 -3.08012,-1.44751 -7.9888,-1.35747 -11.13963,0.0526 -45.33523,20.28923 -95.01259,25.603989 -141.7127,40.979869 -6.471856,2.13085 -8.180936,3.69003 -10.714136,8.5403 0.40219,1.67328 1.27179,2.56658 1.69255,3.38951 0.17228,7.82164 0.27466,15.63773 0.40237,24.28304 -0.0449,0.82368 -0.0135,0.62497 -0.0135,0.62497 0,0 27.817686,0.90898 40.855966,1.04607 0,0 0.22141,0.0424 0.22781,-0.26002 0.66387,-1.58707 1.40897,-2.52546 2.41176,-3.96257 2.17165,-2.83908 4.07989,-5.92559 6.25155,-8.76465 0.40157,0.21946 0.80308,0.43891 1.20465,0.65837 -0.37249,2.70725 -0.84256,5.18196 -1.30482,8.98235 10.59775,8.17841 25.55626,16.53559 38.64428,17.1966"
     id="path11147"
     style="fill:#2970ff;fill-opacity:1;stroke-width:1.36488"
     sodipodi:nodetypes="ccscccccssccsccccccsssssccccscccscsccccccccccc" /><path
     fill="#d4684d"
     opacity="1"
     stroke="none"
     d="m 185.74983,169.54066 c -13.04326,-1.18855 -28.20878,-9.29213 -38.70851,-16.9323 -2.5985,7.1088 -4.66956,12.79122 -6.77069,19.23203 -0.53407,1.63734 -0.0148,5.15342 0.88627,5.49008 10.94429,4.09001 25.91846,8.86216 37.70696,12.87797 2.412,-7.22417 4.71044,-13.75952 6.88597,-20.66778 z"
     id="path11149"
     style="fill:#1d50b5;fill-opacity:1;stroke-width:1.36488"
     sodipodi:nodetypes="cccccc" /><path
     id="path11151"
     style="fill:#1d50b5;fill-opacity:1;stroke-width:1.36488"
     d="m 98.301084,202.63703 c -0.0326,-4.85026 -0.79829,-9.46219 -0.91689,-13.97329 -0.18576,-7.06775 -0.0805,-16.15818 -0.338,-23.7514 -5.20547,12.29864 -11.963,26.79142 -14.52024,40.0759 -1.65891,8.61837 2.73125,18.42865 4.64318,27.65685 0.15981,0.77142 2.29574,1.83733 3.14124,1.57343 0.92501,-0.28872 2.03823,-1.99129 1.99236,-3.03015 -0.21883,-4.96468 -0.34427,-10.01057 -1.36925,-14.8438 -1.40381,-6.61819 0.59396,-10.98484 7.3676,-13.70754 z m 40.109266,-46.71358 c -12.91592,-0.59699 -27.22698,-1.42883 -41.073256,-1.11897 -0.16257,2.81329 -0.31094,4.63941 -0.53316,6.16494 0.0178,1.44976 0.0344,2.89954 0.26028,5.41434 0.23113,8.13708 0.13379,15.21223 0.31998,22.27998 0.11873,4.5111 0.51347,9.46658 0.86284,13.97162 12.559116,-5.57439 23.263596,-13.59726 29.061316,-26.80879 2.90328,-6.61572 7.39035,-13.12853 11.102,-19.90312 z" /><path
     fill="#cd654b"
     opacity="1"
     stroke="none"
     d="m 135.01259,200.87278 c 2.90679,-2.42938 5.81358,-4.85874 9.50352,-7.9426 -4.0058,-2.47811 -7.19402,-4.45048 -10.51504,-6.50497 -5.91989,6.30164 -11.63165,12.26659 -17.15286,18.40306 -0.70021,0.77808 -0.73268,2.51632 -0.51077,3.70439 1.19991,6.42246 2.30465,12.88732 4.04632,19.17012 0.58542,2.11191 2.94651,3.73164 4.49592,5.57638 0.79355,-2.12991 2.17307,-4.24017 2.24525,-6.39424 0.11191,-3.36094 -0.34026,-6.82874 -1.13,-10.1126 -1.396,-5.80434 -0.20936,-10.29623 5.94793,-13.61543 1.48552,-0.54953 1.97563,-1.627 3.06973,-2.28411 z"
     id="path11153"
     style="fill:#1d50b5;fill-opacity:1;stroke-width:1.36488" /><path
     fill="#de9c50"
     opacity="1"
     stroke="none"
     d="m 97.072024,130.00852 c -0.30123,-1.26354 0.668944,-5.14392 0.06262,-6.39087 -6.77868,7.71635 -7.142952,9.73871 -13.469332,17.347 -2.45473,2.95217 -5.41994,6.12946 -8.30109,9.72029 0.0191,2.46188 0.5136,4.37686 0.97359,6.21237 9.07238,-11.4205 11.542108,-15.02766 20.734208,-26.88879 z"
     id="path11155"
     style="fill:#2970ff;fill-opacity:1;stroke-width:1.36488"
     sodipodi:nodetypes="ccsccc" /><path
     fill="#e7a255"
     opacity="1"
     stroke="none"
     d="m 73.099916,147.08399 c -6.85701,-8.61909 -17.35355,-8.30456 -26.3765,1.35949 0.36499,1.87866 0.94942,3.36785 1.20139,3.34639 7.54013,-0.64236 15.0743,-1.40067 22.57514,-2.3981 0.89888,-0.11956 1.80574,-1.40064 2.59997,-2.30778 z"
     id="path11157"
     style="fill:#2970ff;fill-opacity:1;stroke-width:1.36488"
     sodipodi:nodetypes="cccsc" /><path
     fill="#cf7d4c"
     opacity="1"
     stroke="none"
     d="m 73.236906,147.03122 c -1.13431,0.65342 -1.83808,2.24103 -2.73696,2.36055 -7.50084,0.99743 -15.03501,1.75574 -22.57514,2.3981 -0.25197,0.0215 -0.67401,-1.95428 -1.21436,-3.40779 -4.41703,3.91601 -5.87445,8.91241 -4.49561,15.05047 7.33827,-3.83878 14.03793,-7.42526 20.81495,-10.85891 4.28945,-2.17326 8.25332,-3.13668 9.68455,3.42513 0.14246,0.65313 2.24482,0.87883 3.78193,0.95974 -0.11603,-2.17867 -0.57558,-4.01418 -1.05997,-6.33194 -0.6359,-1.43537 -1.24751,-2.38851 -2.19939,-3.59535 z"
     id="path11159"
     style="fill:#1d50b5;fill-opacity:1;stroke-width:1.36488"
     sodipodi:nodetypes="cccccssccc" /><path
     fill="#e9ba4f"
     opacity="1"
     stroke="none"
     d="m 271.49736,122.7219 c -1.29362,-4.18978 5.7511,-12.20519 14.88639,-19.4355 -11.75744,-6.327707 -18.77341,-8.737067 -31.61795,-14.660911 -17.54791,7.244769 -22.06395,15.629691 -30.11485,30.725951 18.41365,-6.21974 32.76607,-3.67993 46.84641,3.37046 z"
     id="path11161"
     style="fill:#70cbff;fill-opacity:1;stroke-width:1.36488"
     sodipodi:nodetypes="ccccc" /><path
     style="fill:#1d50b5;fill-opacity:1;stroke:none;stroke-width:1px;stroke-linecap:butt;stroke-linejoin:miter;stroke-opacity:1"
     d="m 250.59871,229.70377 c -1.73956,-4.33377 -8.70538,-32.71819 -13.10892,-48.90727 10.30501,-7.0648 38.05799,-15.5388 64.12906,-42.93375 -3.89695,16.06035 -16.40046,43.70628 -10.63867,64.4583 1.02101,3.67729 -0.22732,4.74455 -3.06191,7.98052 -5.254,-7.89091 -16.13763,-21.94249 -2.31644,-43.54553 0,0 -7.55665,7.24256 -14.70022,14.58803 -5.29727,5.44699 -12.76278,5.06829 -15.30499,10.35207 -5.93544,12.33636 -0.85967,41.06091 -0.85967,41.06091 -2.12282,-0.43228 -3.63878,-1.59736 -4.13824,-3.05328 z"
     id="path11163"
     sodipodi:nodetypes="cccsccsscc" /><path
     fill="#15100e"
     opacity="1"
     stroke="none"
     d="m 296.75969,126.83614 c -1.18756,11.91544 8.22923,25.78036 18.45716,27.51431 4.39659,0.74543 14.42783,0.92362 15.90364,-4.37245 1.44294,-5.17802 -2.66106,-11.58163 -11.09706,-11.70047 -15.07,-3.20765 -10.79453,-29.5112 -10.79453,-29.5112 0,0 -6.5057,-0.77276 -12.46921,18.06981 z"
     id="path11165"
     style="stroke-width:1.9654" /></g></svg>
