<svg height="280" viewBox="0 0 280 280" width="280" xmlns="http://www.w3.org/2000/svg" xmlns:xlink="http://www.w3.org/1999/xlink"><linearGradient id="a" gradientUnits="userSpaceOnUse" x1="66.075582" x2="225.71804" y1="115.63641" y2="-44.006046"><stop offset="0" stop-color="#2c2fa9"/><stop offset="1" stop-color="#504cff"/></linearGradient><linearGradient id="b" gradientUnits="userSpaceOnUse" x1="66.075592" x2="225.71805" y1="328.49301" y2="168.85056"><stop offset="0" stop-color="#101866"/><stop offset="1" stop-color="#3133b4"/></linearGradient><linearGradient id="c" gradientUnits="userSpaceOnUse" x1="189.80415" x2="266.96466" y1="180.8181" y2="103.65756"><stop offset="0" stop-color="#3133b4"/><stop offset="1" stop-color="#4342e0"/></linearGradient><linearGradient id="d" gradientUnits="userSpaceOnUse" x1="24.828962" x2="101.98948" y1="180.8181" y2="103.66888"><stop offset="0" stop-color="#1d2285"/><stop offset="1" stop-color="#2f31b0"/></linearGradient><g stroke-width="1.13222" transform="translate(-6.445877 -2.264515)"><path d="m278.93219 9.208101v53.214149h-26.60707c-34.75903 0-63.53997 22.21408-74.49982 53.21416h-63.85698c-10.95985-31.00008-39.740783-53.21416-74.499815-53.21416h-26.607076v-53.214149h26.607076a132.8429 132.8429 0 0 1 106.428305 53.214149 132.8429 132.8429 0 0 1 106.42831-53.214149z" fill="url(#a)"/><path d="m252.32513 222.06472h26.60707v53.21415h-26.60707a132.8429 132.8429 0 0 1 -106.42831-53.21415 132.8429 132.8429 0 0 1 -106.428305 53.21415h-26.607076v-53.21415h26.607076c34.759032 0 63.539965-22.21408 74.499815-53.21416h63.85698c10.95985 31.00008 39.74079 53.21416 74.49982 53.21416z" fill="url(#b)"/><path d="m177.8253 115.63641h101.1069v53.21415h-101.1069z" fill="url(#c)"/><path d="m12.861441 115.63641h101.106899v53.21415h-101.106899z" fill="url(#d)"/></g></svg>