<?xml version="1.0" encoding="UTF-8"?>
<svg height="16px" viewBox="0 0 16 16" width="16px" xmlns="http://www.w3.org/2000/svg">
    <path d="m 12.914062 3.085938 v 1.964843 h -0.984374 c -1.28125 0 -2.347657 0.820313 -2.75 1.964844 h -2.359376 c -0.402343 -1.144531 -1.46875 -1.964844 -2.75 -1.964844 h -0.984374 v -1.964843 h 0.984374 c 1.546876 0 3.003907 0.730468 3.929688 1.964843 c 0.925781 -1.234375 2.382812 -1.964843 3.929688 -1.964843 z m 0 0"/>
    <path d="m 11.929688 10.949219 h 0.984374 v 1.964843 h -0.984374 c -1.546876 0 -3.003907 -0.730468 -3.929688 -1.964843 c -0.925781 1.234375 -2.382812 1.964843 -3.929688 1.964843 h -0.984374 v -1.964843 h 0.984374 c 1.28125 0 2.347657 -0.820313 2.75 -1.964844 h 2.359376 c 0.402343 1.144531 1.46875 1.964844 2.75 1.964844 z m 0 0"/>
    <path d="m 9.179688 7.015625 h 3.734374 v 1.96875 h -3.734374 z m 0 0"/>
    <path d="m 3.085938 7.015625 h 3.734374 v 1.96875 h -3.734374 z m 0 0"/>
</svg>
