<svg xmlns="http://www.w3.org/2000/svg"><defs><font horiz-adv-x="455"><font-face alphabetic="0" ascent="984" descent="-273" panose-1="2 11 5 3 3 4 3 2 2 4"/><glyph glyph-name="space" horiz-adv-x="202" unicode="&#x20;"/><glyph d="M105 576 103 670H186L184 576 173 198H116L105 576ZM85 50Q85 79 102 96T145 114Q169 114 186 97T204 50Q204 23 187 6T145-12Q120-12 103 5T85 50Z" glyph-name="exclam" horiz-adv-x="289" unicode="&#x21;"/><glyph d="M83 598 80 690H168L165 598 149 431H99L83 598ZM259 598 256 690H344L341 598 325 431H275L259 598Z" glyph-name="quotedbl" horiz-adv-x="425" unicode="&#x26;&#x71;&#x75;&#x6f;&#x74;&#x3b;"/><glyph d="M115 204H35V261H122L140 409H55V467H147L170 650H223L200 467H333L357 650H410L386 467H467V409H380L362 261H447V204H355L330 0H277L301 204H169L144 0H90L115 204ZM308 261 326 409H194L176 261H308Z" glyph-name="numbersign" horiz-adv-x="497" unicode="&#x23;"/><glyph d="M380 524Q352 551 326 566T258 581Q212 581 185 555T158 485Q158 449 178 426T230 386 297 352 365 312 416 254 437 165Q437 93 396 47T282-9V-110H222V-11Q174-6 129 15T52 66L90 123Q122 95 160 76T245 56Q301 56 328 84T356 159Q356 199 336 225T284 271 217 308 149 347 98 400 77 481Q77 548 116 592T222 648V748H282V649Q330 644 363 623T424 573L380 524Z" glyph-name="dollar" horiz-adv-x="497" unicode="&#x24;"/><glyph d="M184 254Q116 254 76 308T35 462Q35 561 75 614T184 668Q251 668 292 615T333 462Q333 362 292 308T184 254ZM184 305Q222 305 246 344T270 462Q270 540 246 578T184 617Q145 617 121 579T97 462Q97 384 121 345T184 305ZM202-12 564 668H620L258-12H202ZM641-12Q573-12 533 42T492 196Q492 295 532 348T641 402Q708 402 749 349T790 196Q790 96 749 42T641-12ZM641 39Q679 39 703 78T727 196Q727 274 703 312T641 351Q602 351 578 313T554 196Q554 118 578 79T641 39Z" glyph-name="percent" horiz-adv-x="824" unicode="&#x25;"/><glyph d="M112 175Q112 148 122 126T149 87 190 63 241 54Q275 54 306 68T366 107Q318 149 274 199T194 302Q159 274 136 244T112 175ZM189 514Q189 487 197 458T220 399Q242 414 262 429T298 461 323 496 332 537Q332 566 318 587T270 609Q233 609 211 582T189 514ZM572-12Q537-2 499 16T421 63Q383 29 337 9T232-12Q187-12 151 1T88 39 47 96 32 170Q32 203 42 230T71 280 112 322 161 359Q141 400 130 438T118 513Q118 546 129 574T160 623 208 656 270 668Q331 668 365 632T399 538Q399 506 386 479T352 429 305 385 251 344Q283 293 326 246T417 160Q447 201 470 249T509 354H586Q566 289 538 230T471 119Q505 96 536 80T594 56L572-12Z" glyph-name="ampersand" horiz-adv-x="609" unicode="&#x26;&#x61;&#x6d;&#x70;&#x3b;"/><glyph d="M83 598 80 690H168L165 598 149 431H99L83 598Z" glyph-name="quotesingle" horiz-adv-x="249" unicode="&#x26;&#x61;&#x70;&#x6f;&#x73;&#x3b;"/><glyph d="M214-176Q152-76 117 35T82 278Q82 410 117 520T214 732L265 708Q207 612 179 503T150 278Q150 163 178 54T265-152L214-176V-176Z" glyph-name="parenleft" horiz-adv-x="303" unicode="&#x28;"/><glyph d="M38-152Q96-56 124 53T153 278Q153 393 125 502T38 708L89 732Q151 631 186 521T221 278Q221 146 186 35T89-176L38-152V-152Z" glyph-name="parenright" horiz-adv-x="303" unicode="&#x29;"/><glyph d="M98 449 155 543 58 583 73 629 175 604 184 712H233L242 605 345 629 360 583 263 543 319 449 280 420 209 506 138 420 98 449Z" glyph-name="asterisk" horiz-adv-x="418" unicode="&#x2a;"/><glyph d="M216 299H34V361H216V556H281V361H463V299H281V104H216V299Z" glyph-name="plus" horiz-adv-x="497" unicode="&#x2b;"/><glyph d="M47-122Q89-103 113-72T137 0Q134-1 127-1 103-1 86 13T68 56Q68 83 86 98T129 114Q161 114 179 88T198 17Q198-48 163-96T67-170L47-122Z" glyph-name="comma" horiz-adv-x="249" unicode="&#x2c;"/><glyph d="M41 282H271V219H41V282Z" glyph-name="hyphen" horiz-adv-x="311" unicode="&#x2d;"/><glyph d="M65 50Q65 79 82 96T125 114Q149 114 166 97T184 50Q184 23 167 6T125-12Q100-12 83 5T65 50Z" glyph-name="period" horiz-adv-x="249" unicode="&#x2e;"/><glyph d="M277 710H337L70-160H10L277 710Z" glyph-name="slash" horiz-adv-x="350" unicode="&#x2f;"/><glyph d="M249-12Q152-12 98 74T44 321Q44 482 98 566T249 650Q345 650 399 566T453 321Q453 160 399 74T249-12ZM249 54Q277 54 299 69T338 117 364 200 373 321Q373 391 364 441T339 522 300 569 249 584Q221 584 198 569T159 523 133 441 124 321Q124 181 158 118T249 54Z" glyph-name="zero" horiz-adv-x="497" unicode="&#x30;"/><glyph d="M79 68H225V538H109V591Q153 599 185 610T244 638H307V68H439V0H79V68Z" glyph-name="one" horiz-adv-x="497" unicode="&#x31;"/><glyph d="M40 49Q112 121 168 179T262 286 320 377 340 458Q340 513 310 548T219 583Q179 583 145 561T83 506L36 553Q76 597 121 623T229 650Q318 650 369 599T420 462Q420 417 401 372T347 278 265 177 160 65Q186 67 214 69T267 71H452V0H40V49Z" glyph-name="two" horiz-adv-x="497" unicode="&#x32;"/><glyph d="M68 132Q97 102 135 79T231 56Q289 56 326 87T363 173Q363 201 353 224T318 265 255 291 159 300V363Q210 363 244 372T300 397 331 435 340 482Q340 529 311 556T230 583Q190 583 157 565T94 518L50 570Q87 605 131 627T233 650Q275 650 310 639T370 608 410 557 424 488Q424 430 392 393T308 336V332Q337 325 362 312T406 278 435 230 446 170Q446 128 430 94T385 37 318 1 236-12Q198-12 167-5T109 15 63 44 26 78L68 132Z" glyph-name="three" horiz-adv-x="497" unicode="&#x33;"/><glyph d="M304 242V427Q304 453 305 488T309 550H305Q293 527 280 505T253 460L104 242H304ZM469 176H382V0H304V176H17V230L290 638H382V242H469V176Z" glyph-name="four" horiz-adv-x="497" unicode="&#x34;"/><glyph d="M65 129Q93 100 131 78T226 56Q255 56 280 66T325 96 355 142 366 202Q366 268 329 305T230 342Q197 342 174 332T121 303L77 331 98 638H417V567H170L153 378Q176 390 199 397T251 404Q292 404 328 392T391 356 433 294 449 204Q449 152 431 112T383 45 315 3 234-12Q196-12 165-5T108 15 62 42 25 75L65 129Z" glyph-name="five" horiz-adv-x="497" unicode="&#x35;"/><glyph d="M268 53Q292 53 312 63T347 91 370 135 379 193Q379 256 350 292T261 328Q231 328 196 309T128 244Q136 150 171 102T268 53ZM399 531Q379 554 352 567T294 581Q261 581 231 567T178 521 141 438 126 310Q156 347 196 368T275 390Q358 390 407 341T457 193Q457 147 442 110T401 45 341 3 268-12Q221-12 181 7T112 64 65 160 48 295Q48 391 68 458T122 568 199 630 291 650Q343 650 380 631T445 582L399 531Z" glyph-name="six" horiz-adv-x="497" unicode="&#x36;"/><glyph d="M177 0Q181 90 193 165T226 307 281 438 362 567H44V638H455V587Q398 515 363 449T306 315 276 170 262 0H177V0Z" glyph-name="seven" horiz-adv-x="497" unicode="&#x37;"/><glyph d="M115 171Q115 144 125 122T154 84 198 58 252 49Q308 49 342 80T377 161Q377 192 363 214T325 252 270 282 204 310Q166 284 141 250T115 171ZM295 348Q327 377 344 409T362 476Q362 524 333 556T251 589Q206 589 177 561T148 486Q148 457 160 437T192 400 239 372 295 348ZM41 163Q41 194 51 220T78 268 116 306 161 335V339Q126 364 99 399T72 486Q72 523 86 553T124 604 181 638 253 650Q295 650 328 638T384 603 420 549 433 480Q433 455 425 432T404 389 376 353 345 326V322Q366 310 386 295T421 260 446 215 456 158Q456 122 441 91T399 37 334 1 250-12Q205-12 167 1T101 37 57 93 41 163Z" glyph-name="eight" horiz-adv-x="497" unicode="&#x38;"/><glyph d="M235 310Q266 310 301 329T369 395Q361 489 325 537T228 585Q205 585 185 575T149 547 126 502 117 445Q117 382 146 346T235 310ZM97 107Q117 84 144 70T202 56Q236 56 266 70T319 116 356 201 371 330Q341 292 301 270T221 248Q138 248 89 297T40 445Q40 491 55 528T95 593 155 635 228 650Q275 650 315 631T385 574 431 478 448 343Q448 247 428 180T374 70 297 8 205-12Q154-12 116 7T51 55L97 107Z" glyph-name="nine" horiz-adv-x="497" unicode="&#x39;"/><glyph d="M65 411Q65 440 82 457T125 475Q149 475 166 458T184 411Q184 384 167 367T125 349Q100 349 83 366T65 411ZM65 50Q65 79 82 96T125 114Q149 114 166 97T184 50Q184 23 167 6T125-12Q100-12 83 5T65 50Z" glyph-name="colon" horiz-adv-x="249" unicode="&#x3a;"/><glyph d="M65 411Q65 440 82 457T125 475Q149 475 166 458T184 411Q184 384 167 367T125 349Q100 349 83 366T65 411ZM47-122Q89-103 113-72T137 0Q134-1 127-1 103-1 86 13T68 56Q68 83 86 98T129 114Q161 114 179 88T198 17Q198-48 163-96T67-170L47-122Z" glyph-name="semicolon" horiz-adv-x="249" unicode="&#x3b;"/><glyph d="M34 365 463 533V462L252 384 118 334V330L252 280 463 202V131L34 299V365Z" glyph-name="less" horiz-adv-x="497" unicode="&#x26;&#x6c;&#x74;&#x3b;"/><glyph d="M34 468H463V406H34V468ZM34 511H463V449H34V511Z" glyph-name="equal" horiz-adv-x="497" unicode="&#x3d;"/><glyph d="M463 299 34 131V202L245 280 379 330V334L245 384 34 462V533L463 365V299Z" glyph-name="greater" horiz-adv-x="497" unicode="&#x26;&#x67;&#x74;&#x3b;"/><glyph d="M160 198Q154 237 162 268T186 326 220 376 257 421 285 467 297 517Q297 557 273 585T200 614Q167 614 138 599T85 556L38 599Q70 635 111 658T206 682Q284 682 330 640T377 522Q377 489 365 462T336 411 299 364 263 315 237 262 232 198H160ZM139 50Q139 79 156 96T198 114Q223 114 240 97T258 50Q258 23 241 6T198-12Q173-12 156 5T139 50Z" glyph-name="question" horiz-adv-x="425" unicode="&#x3f;"/><glyph d="M51 203Q51 303 84 385T175 525 308 614 468 646Q544 646 604 622T707 555 773 450 796 315Q796 249 778 200T730 117 666 66 596 49Q555 49 527 68T493 125H491Q466 96 434 77T369 57Q318 57 284 93T249 198Q249 238 262 279T301 354 361 409 441 430Q467 430 487 419T521 382H523L534 422H589L550 222Q520 105 604 105 628 105 651 119T694 159 726 224 738 312Q738 372 721 423T668 512 581 570 461 591Q394 591 331 564T219 486 141 365 111 206Q111 133 133 76T196-20 290-79 409-100Q455-100 496-88T571-55L593-104Q508-155 403-155 329-155 265-132T154-64 79 49 51 203ZM315 203Q315 155 335 134T385 113Q406 113 428 127T477 172L506 331Q492 354 477 363T442 373Q412 373 389 357T349 316 324 261 315 203Z" glyph-name="at" horiz-adv-x="847" unicode="&#x40;"/><glyph d="M369 267 338 367Q320 422 304 476T272 588H268Q253 531 237 477T203 367L172 267H369ZM390 200H151L88 0H3L225 656H319L541 0H452L390 200Z" glyph-name="A" horiz-adv-x="544" unicode="&#x41;"/><glyph d="M90 656H285Q335 656 376 647T447 619 493 570 510 496Q510 447 482 408T396 353V349Q468 338 508 299T548 192Q548 144 530 108T479 48 400 12 299 0H90V656ZM270 376Q355 376 391 405T428 489Q428 543 390 566T274 590H173V376H270ZM287 66Q372 66 419 97T466 196Q466 257 420 285T287 314H173V66H287Z" glyph-name="B" horiz-adv-x="588" unicode="&#x42;"/><glyph d="M52 328Q52 407 74 470T135 577 227 644 344 668Q404 668 449 644T523 587L476 534Q450 562 419 578T345 595Q298 595 260 577T195 524 153 440 138 330Q138 268 152 219T193 134 256 80 341 61Q389 61 424 80T492 134L539 83Q500 38 451 13T339-12Q277-12 225 11T134 77 74 184 52 328Z" glyph-name="C" horiz-adv-x="571" unicode="&#x43;"/><glyph d="M90 656H254Q406 656 485 572T564 331Q564 253 544 192T485 88 389 23 258 0H90V656ZM248 68Q363 68 420 137T478 331Q478 456 421 522T248 588H173V68H248Z" glyph-name="D" horiz-adv-x="615" unicode="&#x44;"/><glyph d="M90 656H468V586H173V380H422V309H173V71H478V0H90V656Z" glyph-name="E" horiz-adv-x="527" unicode="&#x45;"/><glyph d="M90 656H468V586H173V364H423V294H173V0H90V656Z" glyph-name="F" horiz-adv-x="494" unicode="&#x46;"/><glyph d="M52 328Q52 407 74 470T137 577 233 644 354 668Q422 668 467 643T542 587L495 534Q470 560 438 577T355 595Q305 595 265 577T197 524 154 440 138 330Q138 268 152 219T194 134 262 80 356 61Q391 61 422 71T474 100V271H335V340H550V64Q518 31 466 10T347-12Q282-12 228 11T135 77 74 184 52 328Z" glyph-name="G" horiz-adv-x="617" unicode="&#x47;"/><glyph d="M90 656H173V381H478V656H562V0H478V309H173V0H90V656Z" glyph-name="H" horiz-adv-x="652" unicode="&#x48;"/><glyph d="M90 656H173V0H90V656Z" glyph-name="I" horiz-adv-x="263" unicode="&#x49;"/><glyph d="M91 135Q113 96 141 79T204 61Q257 61 283 93T309 201V656H393V193Q393 151 383 114T351 48 295 4 212-12Q89-12 31 93L91 135Z" glyph-name="J" horiz-adv-x="480" unicode="&#x4a;"/><glyph d="M90 656H173V327H176L449 656H543L338 406 575 0H482L286 341 173 208V0H90V656Z" glyph-name="K" horiz-adv-x="579" unicode="&#x4b;"/><glyph d="M90 656H173V71H460V0H90V656Z" glyph-name="L" horiz-adv-x="486" unicode="&#x4c;"/><glyph d="M90 656H188L315 304 363 170H367L413 304 539 656H637V0H558V361Q558 405 561 458T569 555H565L512 409 386 66H339L212 409 160 555H156Q159 511 163 458T167 361V0H90V656Z" glyph-name="M" horiz-adv-x="727" unicode="&#x4d;"/><glyph d="M90 656H176L413 244 484 108H488Q485 158 482 211T478 317V656H557V0H471L233 413 162 548H158Q162 498 165 447T169 343V0H90V656Z" glyph-name="N" horiz-adv-x="647" unicode="&#x4e;"/><glyph d="M332-12Q270-12 219 12T130 80 73 188 52 331Q52 410 72 472T130 578 218 645 332 668Q394 668 445 645T534 578 592 472 613 331Q613 252 593 189T535 81 446 12 332-12ZM332 61Q376 61 411 80T472 134 512 219 526 331Q526 392 512 441T473 524 412 576 332 595Q288 595 253 577T192 524 152 441 138 331Q138 269 152 220T191 135 252 80 332 61Z" glyph-name="O" horiz-adv-x="664" unicode="&#x4f;"/><glyph d="M90 656H291Q345 656 390 646T466 614 515 554 533 463Q533 411 516 373T466 310 390 273 291 260H173V0H90V656ZM281 328Q367 328 408 360T450 463Q450 534 408 561T281 589H173V328H281Z" glyph-name="P" horiz-adv-x="576" unicode="&#x50;"/><glyph d="M138 331Q138 268 152 218T191 131 252 76 332 57Q376 57 411 76T472 131 512 217 526 331Q526 392 512 441T473 524 412 576 332 595Q288 595 253 577T192 524 152 441 138 331ZM627-149Q612-154 587-159T533-164Q442-164 381-121T291-9Q237-2 193 25T118 96 69 199 52 331Q52 410 72 472T130 578 218 645 332 668Q394 668 445 645T534 578 592 472 613 331Q613 260 597 202T550 100 476 29 381-8Q404-52 446-73T542-94Q564-94 580-91T611-84L627-149Z" glyph-name="Q" horiz-adv-x="664" unicode="&#x51;"/><glyph d="M173 345H283Q360 345 401 376T442 472Q442 537 401 563T283 589H173V345ZM450 0 292 277H173V0H90V656H295Q345 656 387 647T460 615 508 558 525 472Q525 395 485 349T378 286L544 0H450Z" glyph-name="R" horiz-adv-x="581" unicode="&#x52;"/><glyph d="M92 143Q127 106 174 84T273 61Q338 61 374 90T410 168Q410 193 402 210T379 240 344 263 301 284L207 325Q184 335 160 349T117 383 86 430 74 494Q74 531 89 563T132 618 197 655 280 668Q339 668 389 646T474 587L429 533Q399 562 363 578T280 595Q225 595 192 570T158 499Q158 475 167 459T193 430 228 408 267 390L360 350Q388 338 413 323T456 287 484 239 495 175Q495 136 480 102T435 43 365 3 272-12Q203-12 144 14T42 85L92 143Z" glyph-name="S" horiz-adv-x="534" unicode="&#x53;"/><glyph d="M226 586H28V656H508V586H310V0H226V586Z" glyph-name="T" horiz-adv-x="536" unicode="&#x54;"/><glyph d="M87 656H170V269Q170 210 182 170T214 106 263 72 323 61Q356 61 384 71T433 106 466 170 478 269V656H558V271Q558 192 540 138T491 51 416 3 323-12Q273-12 230 2T155 50 105 138 87 271V656Z" glyph-name="U" horiz-adv-x="645" unicode="&#x55;"/><glyph d="M0 656H89L194 302Q212 243 225 193T258 85H262Q280 143 294 193T325 302L430 656H515L307 0H210L0 656Z" glyph-name="V" horiz-adv-x="515" unicode="&#x56;"/><glyph d="M23 656H109L178 299Q187 245 197 193T216 87H220Q231 141 243 193T266 299L357 656H433L524 299Q536 247 548 194T572 87H576Q585 141 594 193T613 299L682 656H762L626 0H526L427 395Q418 433 411 469T395 544H391Q383 506 375 470T358 395L261 0H162L23 656Z" glyph-name="W" horiz-adv-x="786" unicode="&#x57;"/><glyph d="M206 339 28 656H120L209 488Q222 465 233 444T260 393H264Q278 422 288 443T311 488L398 656H486L307 335 498 0H406L310 177Q297 201 284 226T254 282H250Q236 252 223 227T198 177L103 0H15L206 339Z" glyph-name="X" horiz-adv-x="513" unicode="&#x58;"/><glyph d="M196 254-1 656H88L173 471Q189 435 204 400T236 328H240Q257 365 274 400T306 471L390 656H477L280 254V0H196V254Z" glyph-name="Y" horiz-adv-x="476" unicode="&#x59;"/><glyph d="M45 50 390 586H76V656H494V607L148 71H497V0H45V50Z" glyph-name="Z" horiz-adv-x="539" unicode="&#x5a;"/><glyph d="M94 708H273V661H156V-105H273V-152H94V708Z" glyph-name="bracketleft" horiz-adv-x="303" unicode="&#x5b;"/><glyph d="M14 710H73L340-160H281L14 710Z" glyph-name="backslash" horiz-adv-x="350" unicode="&#x5c;"/><glyph d="M147-105V661H31V708H209V-152H31V-105H147Z" glyph-name="bracketright" horiz-adv-x="303" unicode="&#x5d;"/><glyph d="M212 670H285L437 284H365L300 460 251 593H247L197 460 132 284H60L212 670Z" glyph-name="asciicircum" horiz-adv-x="497" unicode="&#x5e;"/><glyph d="M488-71V-126H12V-71H488Z" glyph-name="underscore" horiz-adv-x="500" unicode="&#x5f;"/><glyph d="M160 714H246L336 573H273L160 714Z" glyph-name="grave" horiz-adv-x="542" unicode="&#x60;"/><glyph d="M58 126Q58 206 129 248T357 308Q357 331 353 353T337 392 306 419 257 430Q214 430 178 414T112 378L79 435Q113 457 162 477T270 498Q359 498 399 444T439 298V0H371L364 58H362Q327 29 287 9T201-12Q139-12 99 24T58 126ZM139 132Q139 90 163 72T224 54Q259 54 290 70T357 119V254Q296 246 254 235T187 209 150 175 139 132Z" glyph-name="a" horiz-adv-x="512" unicode="&#x61;"/><glyph d="M82 712H164V518L162 430Q195 459 234 478T314 498Q361 498 397 481T457 431 494 353 507 251Q507 189 490 140T444 57 377 6 297-12Q263-12 227 3T158 48H155L148 0H82V712ZM164 108Q196 80 227 69T283 57Q313 57 338 70T382 108 411 169 422 250Q422 290 415 323T393 379 353 416 294 429Q235 429 164 363V108Z" glyph-name="b" horiz-adv-x="555" unicode="&#x62;"/><glyph d="M46 242Q46 303 65 350T116 431 190 481 280 498Q328 498 362 481T422 440L381 387Q359 406 336 418T283 430Q250 430 222 417T174 378 143 319 131 242Q131 200 142 166T172 108 220 70 281 56Q316 56 344 70T395 105L432 51Q399 22 359 5T274-12Q226-12 184 5T112 54 64 134 46 242Z" glyph-name="c" horiz-adv-x="456" unicode="&#x63;"/><glyph d="M47 242Q47 301 64 348T111 429 178 480 258 498Q300 498 331 483T394 442L390 525V712H473V0H405L398 57H395Q366 29 329 9T248-12Q156-12 102 54T47 242ZM132 243Q132 155 167 106T266 57Q300 57 330 73T390 124V378Q359 406 331 417T272 429Q243 429 218 416T173 378 143 319 132 243Z" glyph-name="d" horiz-adv-x="555" unicode="&#x64;"/><glyph d="M46 242Q46 302 64 349T113 430 183 480 264 498Q310 498 346 482T407 436 445 364 458 270Q458 243 455 225H127Q132 146 175 100T289 54Q324 54 353 64T410 92L439 38Q407 18 368 3T279-12Q230-12 188 5T114 55 64 135 46 242ZM386 279Q386 354 355 393T266 433Q240 433 217 423T174 393 143 345 126 279H386Z" glyph-name="e" horiz-adv-x="496" unicode="&#x65;"/><glyph d="M301 645Q274 657 246 657 178 657 178 563V486H281V419H178V0H96V419H30V481L96 486V563Q96 638 130 681T238 724Q261 724 281 720T319 708L301 645Z" glyph-name="f" horiz-adv-x="292" unicode="&#x66;"/><glyph d="M117-82Q117-121 154-144T258-167Q293-167 321-159T370-137 401-105 412-68Q412-34 387-21T314-8H230Q216-8 200-7T167 0Q141-19 129-40T117-82ZM45-93Q45-62 64-34T116 17V21Q98 32 86 51T73 100Q73 131 90 154T126 190V194Q102 214 83 247T63 325Q63 365 77 397T117 451 175 486 246 498Q266 498 283 495T315 486H484V423H384Q401 406 412 380T424 323Q424 284 410 253T372 200 316 166 246 154Q228 154 209 158T173 171Q160 160 151 147T142 113Q142 90 160 75T228 60H322Q407 60 449 33T492-56Q492-90 475-120T426-174 349-210 246-224Q201-224 164-216T101-190 60-149 45-93ZM246 209Q267 209 285 217T318 240 341 276 349 325Q349 379 319 408T246 438Q203 438 173 409T143 325Q143 298 151 277T173 240 206 217 246 209Z" glyph-name="g" horiz-adv-x="504" unicode="&#x67;"/><glyph d="M82 712H164V518L161 418Q196 451 234 474T323 498Q400 498 435 450T471 308V0H389V297Q389 366 367 396T297 427Q259 427 230 408T164 352V0H82V712Z" glyph-name="h" horiz-adv-x="544" unicode="&#x68;"/><glyph d="M124 586Q100 586 84 601T67 639Q67 663 83 677T124 692Q148 692 164 678T181 639Q181 616 165 601T124 586ZM82 486H164V0H82V486Z" glyph-name="i" horiz-adv-x="246" unicode="&#x69;"/><glyph d="M83 486H165V-55Q165-129 135-173T32-217Q9-217-9-213T-40-204L-23-142Q-14-145-2-147T23-150Q59-150 71-125T83-55V486ZM125 586Q101 586 85 601T68 639Q68 663 84 677T125 692Q148 692 164 678T181 639Q181 616 165 601T125 586Z" glyph-name="j" horiz-adv-x="247" unicode="&#x6a;"/><glyph d="M82 712H163V230H166L373 486H464L301 291 486 0H396L254 234 163 128V0H82V712Z" glyph-name="k" horiz-adv-x="495" unicode="&#x6b;"/><glyph d="M82 712H164V92Q164 72 171 64T187 56Q191 56 194 56T205 58L216-4Q208-8 197-10T169-12Q122-12 102 16T82 98V712Z" glyph-name="l" horiz-adv-x="255" unicode="&#x6c;"/><glyph d="M82 486H150L157 416H160Q192 451 229 474T311 498Q367 498 398 474T445 405Q483 447 521 472T605 498Q680 498 716 450T753 308V0H671V297Q671 366 649 396T581 427Q526 427 459 352V0H377V297Q377 366 355 396T286 427Q231 427 164 352V0H82V486Z" glyph-name="m" horiz-adv-x="829" unicode="&#x6d;"/><glyph d="M82 486H150L157 416H160Q195 451 233 474T323 498Q400 498 435 450T471 308V0H389V297Q389 366 367 396T297 427Q259 427 230 408T164 352V0H82V486Z" glyph-name="n" horiz-adv-x="547" unicode="&#x6e;"/><glyph d="M46 242Q46 303 64 350T114 431 185 481 271 498Q316 498 356 481T428 431 477 351 496 242Q496 182 478 135T428 55 357 5 271-12Q226-12 186 5T114 54 65 134 46 242ZM131 242Q131 200 141 166T169 108 214 70 271 56Q302 56 328 69T372 107 401 166 411 242Q411 284 401 318T373 378 328 416 271 430Q240 430 214 417T170 378 141 319 131 242Z" glyph-name="o" horiz-adv-x="542" unicode="&#x6f;"/><glyph d="M164-41V-205H82V486H150L157 430H160Q193 458 232 478T315 498Q362 498 398 481T458 431 494 353 507 250Q507 188 490 140T444 57 377 6 297-12Q263-12 230 3T162 44L164-41ZM164 108Q197 80 228 69T283 57Q313 57 338 70T382 108 411 169 422 250Q422 290 415 323T393 379 353 416 294 429Q263 429 232 412T164 363V108Z" glyph-name="p" horiz-adv-x="555" unicode="&#x70;"/><glyph d="M47 242Q47 301 64 348T111 429 178 480 258 498Q300 498 332 484T397 440H399L407 486H473V-205H390V-32L394 54Q365 27 328 8T248-12Q156-12 102 54T47 242ZM132 243Q132 155 167 106T266 57Q300 57 330 73T390 124V378Q359 406 331 417T272 429Q243 429 218 416T173 378 143 319 132 243Z" glyph-name="q" horiz-adv-x="550" unicode="&#x71;"/><glyph d="M82 486H150L157 398H160Q185 444 220 471T298 498Q327 498 350 488L334 416Q322 420 312 422T287 424Q256 424 223 399T164 312V0H82V486Z" glyph-name="r" horiz-adv-x="347" unicode="&#x72;"/><glyph d="M69 110Q101 84 134 68T212 52Q260 52 284 74T308 128Q308 147 298 161T273 185 237 204 197 220Q171 229 145 240T99 268 65 307 52 360Q52 389 63 414T96 458 149 487 219 498Q265 498 303 482T370 443L331 391Q306 410 279 422T220 434Q174 434 153 413T131 364Q131 347 140 335T164 313 198 296 239 280Q265 270 291 259T339 232 373 191 387 133Q387 103 376 77T342 31 286 0 209-12Q157-12 110 7T28 55L69 110Z" glyph-name="s" horiz-adv-x="419" unicode="&#x73;"/><glyph d="M96 419H24V481L100 486 110 622H179V486H310V419H179V149Q179 104 195 80T254 55Q267 55 282 59T309 68L325 6Q305-1 282-6T235-12Q196-12 170 0T127 33 103 84 96 150V419Z" glyph-name="t" horiz-adv-x="338" unicode="&#x74;"/><glyph d="M75 486H158V189Q158 120 179 90T249 59Q287 59 316 78T380 141V486H462V0H394L387 76H384Q350 36 313 12T224-12Q146-12 111 36T75 178V486Z" glyph-name="u" horiz-adv-x="544" unicode="&#x75;"/><glyph d="M12 486H97L189 210Q200 174 211 138T234 67H238Q249 102 260 138T282 210L374 486H455L283 0H187L12 486Z" glyph-name="v" horiz-adv-x="467" unicode="&#x76;"/><glyph d="M24 486H108L180 205Q188 170 195 137T209 70H213Q221 104 229 137T246 205L321 486H401L477 205Q486 170 494 137T511 70H515Q523 104 530 137T545 205L616 486H694L564 0H464L394 261Q385 296 378 330T361 401H357Q349 364 341 330T323 260L255 0H159L24 486Z" glyph-name="w" horiz-adv-x="718" unicode="&#x77;"/><glyph d="M173 254 26 486H115L180 379Q191 359 203 339T228 298H232Q243 318 254 338T276 379L335 486H421L274 245 432 0H343L272 113Q259 135 246 157T219 200H215Q202 179 190 158T166 113L100 0H14L173 254Z" glyph-name="x" horiz-adv-x="446" unicode="&#x78;"/><glyph d="M49-134Q57-136 67-138T86-141Q128-141 154-112T196-37L207-1 12 486H97L196 217Q207 185 219 150T243 80H247Q258 113 268 149T288 217L375 486H455L272-40Q259-76 243-107T205-160 155-196 90-209Q73-209 59-207T33-199L49-134V-134Z" glyph-name="y" horiz-adv-x="467" unicode="&#x79;"/><glyph d="M31 44 287 419H59V486H391V442L135 67H399V0H31V44Z" glyph-name="z" horiz-adv-x="425" unicode="&#x7a;"/><glyph d="M273-105V-152H228Q169-152 140-124T111-19Q111 8 112 32T115 80 118 126 120 174Q120 189 116 202T103 227 76 245 34 252V304Q59 304 76 311T102 328 116 353 120 381Q120 432 116 476T111 575Q111 652 140 680T228 708H273V661H246Q205 661 192 640T178 570Q178 524 181 482T184 389Q184 340 170 315T124 280V276Q156 267 170 241T184 167Q184 116 181 74T178-14Q178-63 191-84T246-105H273Z" glyph-name="braceleft" horiz-adv-x="303" unicode="&#x7b;"/><glyph d="M92 750H150V-250H92V750Z" glyph-name="bar" horiz-adv-x="241" unicode="&#x7c;"/><glyph d="M57-105Q98-105 111-84T125-14Q125 32 123 74T120 167Q120 215 133 241T179 276V280Q147 289 134 314T120 389Q120 440 122 482T125 570Q125 619 112 640T57 661H31V708H75Q105 708 127 702T163 680 185 640 192 575Q192 520 188 476T183 381Q183 352 201 329T269 304V252Q244 252 228 245T201 227 187 203 183 174Q183 149 184 126T187 80 190 33 192-19Q192-58 185-83T164-124 127-145 75-152H31V-105H57Z" glyph-name="braceright" horiz-adv-x="303" unicode="&#x7d;"/><glyph d="M36 313Q63 361 96 382T161 403Q191 403 214 390T258 361 298 332 338 319Q360 319 379 333T415 380L461 346Q434 298 401 278T336 257Q306 257 283 270T239 299 199 328 159 341Q137 341 118 327T82 280L36 313Z" glyph-name="asciitilde" horiz-adv-x="497" unicode="&#x7e;"/><glyph glyph-name="uni00A0" horiz-adv-x="202" unicode="&#xa0;"/><glyph d="M184-90 186-184H103L105-90 116 288H173L184-90ZM204 436Q204 407 187 390T145 372Q120 372 103 389T85 436Q85 463 102 480T145 498Q169 498 186 481T204 436Z" glyph-name="exclamdown" horiz-adv-x="289" unicode="&#xa1;"/><glyph d="M262 477Q207 464 175 420T143 310Q143 243 174 199T262 142V477ZM454 133Q425 107 389 90T314 70V-33H262V71Q217 76 180 94T117 143 76 215 61 310Q61 362 76 403T119 474 183 522 262 547V653H314V550Q358 548 390 531T445 492L405 440Q385 458 363 469T314 482V138Q346 140 372 153T418 185L454 133Z" glyph-name="cent" horiz-adv-x="497" unicode="&#xa2;"/><glyph d="M453 71V0H54V50Q105 78 132 125T160 230Q160 244 158 257T153 285H53V337L120 341H138Q128 373 120 403T111 466Q111 508 124 542T162 600 221 637 297 650Q351 650 388 629T452 575L404 528Q385 551 361 566T303 581Q249 581 221 549T192 464Q192 432 199 403T216 341H375V285H229Q231 271 232 258T234 229Q234 176 218 141T172 75V71H453Z" glyph-name="sterling" horiz-adv-x="497" unicode="&#xa3;"/><glyph d="M26 148 90 213Q73 236 64 265T54 329Q54 364 63 393T90 446L26 512 70 557 138 487Q186 524 249 524 278 524 307 515T359 487L427 557 471 512 406 446Q423 423 433 394T443 329Q443 294 433 265T406 213L471 148 427 103 359 172Q336 153 307 144T249 134Q185 134 138 172L70 103 26 148ZM130 329Q130 299 139 275T165 232 203 205 249 195Q273 195 294 204T332 232 357 274 367 329Q367 359 358 383T332 426 295 453 249 463Q225 463 203 454T165 426 140 384 130 329Z" glyph-name="currency" horiz-adv-x="497" unicode="&#xa4;"/><glyph d="M109 638 187 467Q202 434 216 401T247 332H251Q268 367 282 400T312 467L390 638H474L310 318H452V271H289V206H452V158H289V0H207V158H45V206H207V271H45V318H186L23 638H109Z" glyph-name="yen" horiz-adv-x="497" unicode="&#xa5;"/><glyph d="M92 750H150V291H92V750ZM150 214V-250H92V214H150Z" glyph-name="brokenbar" horiz-adv-x="241" unicode="&#xa6;"/><glyph d="M320 193Q349 207 364 226T380 278Q380 312 360 334T310 372 245 403 178 435Q149 419 133 399T117 348Q117 315 137 294T187 256 253 226 320 193ZM365 574Q341 594 314 607T254 620Q212 620 194 602T175 557Q175 530 195 512T247 479 313 449 380 413 431 361 452 284Q452 236 429 207T367 155Q381 138 389 119T397 73Q397 43 385 18T352-25 301-53 236-64Q182-64 138-45T63 7L113 52Q138 28 167 14T236 0Q276 0 298 20T321 69Q321 97 301 116T250 150 183 179 117 215 66 266 45 343Q45 387 69 419T131 472Q116 488 108 508T99 554Q99 580 108 603T137 645 185 673 251 684Q299 684 337 667T405 627L365 574Z" glyph-name="section" horiz-adv-x="497" unicode="&#xa7;"/><glyph d="M185 588Q163 588 150 602T136 637Q136 658 149 672T185 686Q206 686 220 672T234 637Q234 616 220 602T185 588ZM357 588Q336 588 322 602T308 637Q308 658 322 672T357 686Q379 686 392 672T406 637Q406 616 393 602T357 588Z" glyph-name="dieresis" horiz-adv-x="542" unicode="&#xa8;"/><glyph d="M49 323Q49 399 75 460T145 564 248 630 372 653Q437 653 495 630T598 564 669 460 695 323Q695 246 669 185T599 80 496 13 372-11Q307-11 248 12T145 79 75 184 49 323ZM96 323Q96 257 118 204T177 112 265 52 372 31Q429 31 479 52T566 111 626 203 648 323Q648 388 626 441T567 533 479 591 372 612Q315 612 265 592T178 533 118 442 96 323ZM198 323Q198 366 213 401T254 461 313 499 383 512Q425 512 454 496T508 455L473 416Q453 436 433 446T386 457Q331 457 298 420T264 323Q264 257 296 219T383 180Q415 180 439 192T485 224L515 182Q487 158 456 142T380 125Q342 125 309 138T251 177 212 239 198 323Z" glyph-name="copyright" horiz-adv-x="744" unicode="&#xa9;"/><glyph d="M136 258Q91 258 64 284T37 353Q37 406 84 433T236 471Q235 503 222 524T174 545Q148 545 121 535T73 511L50 553Q75 569 109 582T183 596Q243 596 270 561T298 462V266H248L241 303H237Q217 285 192 272T136 258ZM154 308Q193 308 236 348V433Q159 424 129 405T98 358Q98 332 113 320T154 308Z" glyph-name="ordfeminine" horiz-adv-x="345" unicode="&#xaa;"/><glyph d="M45 221V283L181 438 217 408 99 252 217 94 181 66 45 221ZM203 221V283L339 438 375 408 257 252 375 94 339 66 203 221Z" glyph-name="guillemotleft" horiz-adv-x="429" unicode="&#xab;"/><glyph d="M34 361H463V104H397V299H34V361Z" glyph-name="logicalnot" horiz-adv-x="497" unicode="&#xac;"/><glyph d="M41 282H271V219H41V282Z" glyph-name="uni00AD" horiz-adv-x="311" unicode="&#xad;"/><glyph d="M211 319Q172 319 138 333T79 374 38 436 23 516Q23 560 38 596T78 658 138 698 211 713Q250 713 284 699T344 658 385 596 400 516Q400 472 385 436T345 374 285 334 211 319ZM211 356Q242 356 269 367T317 400 348 450 360 516Q360 551 349 580T317 631 270 665 211 677Q179 677 152 665T106 632 75 581 63 516Q63 480 74 451T105 400 152 368 211 356ZM139 620H215Q247 620 270 606T293 555Q293 537 283 522T256 500L302 417H256L221 487H180V417H139V620ZM206 519Q249 519 249 553 249 568 240 577T208 586H180V519H206Z" glyph-name="registered" horiz-adv-x="423" unicode="&#xae;"/><glyph d="M148 658H394V601H148V658Z" glyph-name="overscore" horiz-adv-x="542" unicode="&#xaf;"/><glyph d="M166 429Q141 429 119 438T79 463 51 503 41 556Q41 586 51 609T78 650 118 676 166 685Q191 685 213 676T253 650 281 610 291 556Q291 527 281 504T254 464 214 438 166 429ZM166 475Q199 475 220 498T241 556Q241 593 220 616T166 639Q133 639 112 616T91 556Q91 521 112 498T166 475Z" glyph-name="degree" horiz-adv-x="331" unicode="&#xb0;"/><glyph d="M216 304H34V366H216V556H281V366H463V304H281V127H216V304ZM34 62H463V0H34V62Z" glyph-name="plusminus" horiz-adv-x="497" unicode="&#xb1;"/><glyph d="M52 477Q97 518 132 550T190 610 225 660 237 706Q237 744 217 766T162 788Q137 788 116 772T78 731L40 766Q63 800 96 821T170 842Q229 842 264 810T300 716Q300 688 289 662T259 610 213 555 155 495H320V440H52V477Z" glyph-name="two.sups" horiz-adv-x="367" unicode="&#xb2;"/><glyph d="M78 537Q96 510 121 495T177 479Q209 479 232 497T255 549Q255 583 223 600T134 618V659Q185 659 212 679T240 729Q240 757 221 774T169 791Q147 791 127 778T90 744L51 778Q77 807 107 824T179 842Q204 842 226 835T266 815 293 782 303 737Q303 702 284 679T235 641Q268 633 293 609T319 545Q319 518 308 497T278 460 234 436 180 428Q132 428 95 449T35 504L78 537Z" glyph-name="three.sups" horiz-adv-x="367" unicode="&#xb3;"/><glyph d="M269 573H206L296 714H382L269 573Z" glyph-name="acute" horiz-adv-x="542" unicode="&#xb4;"/><glyph d="M82 486H164V189Q164 120 186 90T256 59Q294 59 322 78T386 141V486H468V0H400L393 76H391Q362 37 328 15T251-8Q222-8 199 0T159 35L164-55V-200H82V486Z" glyph-name="uni00B5" horiz-adv-x="550" unicode="&#xb5;"/><glyph d="M380 656H464V-80H380V656ZM293 226Q239 226 193 238T113 277 60 345 41 443Q41 502 59 542T109 608 186 645 282 656H326V226H293Z" glyph-name="paragraph" horiz-adv-x="560" unicode="&#xb6;"/><glyph d="M65 321Q65 350 82 367T125 385Q149 385 166 368T184 321Q184 294 167 277T125 259Q100 259 83 276T65 321Z" glyph-name="middot" horiz-adv-x="249" unicode="&#xb7;"/><glyph d="M258 3H311L286-50Q310-58 327-74T345-121Q345-143 333-159T301-186 255-203 200-213L192-172Q232-167 256-156T281-124Q281-104 265-94T218-75L258 3Z" glyph-name="cedilla" horiz-adv-x="542" unicode="&#xb8;"/><glyph d="M172 748H87V790Q120 796 142 805T184 830H236V440H172V748Z" glyph-name="one.sups" horiz-adv-x="367" unicode="&#xb9;"/><glyph d="M182 258Q151 258 124 269T75 302 42 355 30 427Q30 467 42 498T75 551 123 584 182 596Q213 596 240 585T289 552 322 499 334 427Q334 387 322 356T289 303 241 270 182 258ZM182 309Q224 309 247 341T270 427Q270 481 247 513T182 545Q140 545 117 513T93 427Q93 374 116 342T182 309Z" glyph-name="ordmasculine" horiz-adv-x="365" unicode="&#xba;"/><glyph d="M172 252 54 408 89 438 226 283V221L89 66 54 94 172 252ZM330 252 212 408 247 438 384 283V221L247 66 212 94 330 252Z" glyph-name="guillemotright" horiz-adv-x="429" unicode="&#xbb;"/><glyph d="M149 574H64V616Q97 622 119 631T161 656H213V266H149V574ZM180-12 542 668H598L236-12H180ZM633 150V220L637 329H633L583 248 522 150H633ZM749 104H691V0H633V104H455V137L619 390H691V150H749V104Z" glyph-name="onequarter" horiz-adv-x="781" unicode="&#xbc;"/><glyph d="M149 574H64V616Q97 622 119 631T161 656H213V266H149V574ZM159-12 521 668H577L215-12H159ZM493 37Q538 78 573 110T631 170 666 220 678 266Q678 304 658 326T603 348Q578 348 557 332T519 291L481 326Q504 360 537 381T611 402Q670 402 705 370T741 276Q741 248 730 222T700 170 654 115 596 55H761V0H493V37Z" glyph-name="onehalf" horiz-adv-x="808" unicode="&#xbd;"/><glyph d="M78 363Q96 336 121 321T177 305Q209 305 232 323T255 375Q255 409 223 426T134 444V485Q185 485 212 505T240 555Q240 583 221 600T169 617Q147 617 127 604T90 570L51 604Q77 633 107 650T179 668Q204 668 226 661T266 641 293 608 303 563Q303 528 284 505T235 467Q268 459 293 435T319 371Q319 344 308 323T278 286 234 262 180 254Q132 254 95 275T35 330L78 363ZM217-12 579 668H635L273-12H217ZM648 150V220L652 329H648L598 248 537 150H648ZM764 104H706V0H648V104H470V137L634 390H706V150H764V104Z" glyph-name="threequarters" horiz-adv-x="796" unicode="&#xbe;"/><glyph d="M265 288Q270 249 262 218T239 160 205 110 168 65 140 19 128-31Q128-71 152-99T225-127Q258-127 287-112T339-70L387-113Q355-148 314-172T219-196Q141-196 95-154T48-36Q48-3 60 24T89 75 126 122 162 171 187 224 192 288H265ZM286 436Q286 407 269 390T227 372Q202 372 185 389T167 436Q167 463 184 480T227 498Q251 498 268 481T286 436Z" glyph-name="questiondown" horiz-adv-x="425" unicode="&#xbf;"/><glyph d="M369 267 338 367Q320 422 304 476T272 588H268Q253 531 237 477T203 367L172 267H369ZM390 200H151L88 0H3L225 656H319L541 0H452L390 200ZM140 818H234L322 706H253L140 818Z" glyph-name="Agrave" horiz-adv-x="544" unicode="&#xc0;"/><glyph d="M369 267 338 367Q320 422 304 476T272 588H268Q253 531 237 477T203 367L172 267H369ZM390 200H151L88 0H3L225 656H319L541 0H452L390 200ZM289 706H220L308 818H402L289 706Z" glyph-name="Aacute" horiz-adv-x="544" unicode="&#xc1;"/><glyph d="M369 267 338 367Q320 422 304 476T272 588H268Q253 531 237 477T203 367L172 267H369ZM390 200H151L88 0H3L225 656H319L541 0H452L390 200ZM135 706 231 818H311L407 706H340L273 774H269L202 706H135Z" glyph-name="Acircumflex" horiz-adv-x="544" unicode="&#xc2;"/><glyph d="M369 267 338 367Q320 422 304 476T272 588H268Q253 531 237 477T203 367L172 267H369ZM390 200H151L88 0H3L225 656H319L541 0H452L390 200ZM331 711Q311 711 295 719T266 737 239 755 212 763Q198 763 187 750T172 711H126Q131 758 153 788T211 819Q231 819 247 811T276 793 303 775 330 767Q344 767 355 780T370 819H416Q411 773 389 742T331 711Z" glyph-name="Atilde" horiz-adv-x="544" unicode="&#xc3;"/><glyph d="M369 267 338 367Q320 422 304 476T272 588H268Q253 531 237 477T203 367L172 267H369ZM390 200H151L88 0H3L225 656H319L541 0H452L390 200ZM185 715Q163 715 150 729T136 764Q136 786 149 799T185 813Q206 813 220 800T234 764Q234 743 220 729T185 715ZM357 715Q336 715 322 729T308 764Q308 786 322 799T357 813Q379 813 392 800T406 764Q406 743 393 729T357 715Z" glyph-name="Adieresis" horiz-adv-x="544" unicode="&#xc4;"/><glyph d="M369 267 338 367Q320 422 304 476T272 588H268Q253 531 237 477T203 367L172 267H369ZM390 200H151L88 0H3L225 656H319L541 0H452L390 200ZM271 699Q230 699 204 722T178 787Q178 827 204 851T271 875Q311 875 337 851T364 787Q364 746 338 723T271 699ZM271 735Q290 735 304 748T318 787Q318 810 304 824T271 838Q251 838 237 824T223 787Q223 762 237 749T271 735Z" glyph-name="Aring" horiz-adv-x="544" unicode="&#xc5;"/><glyph d="M401 258V590H397Q344 483 290 376L229 258H401ZM773 71V0H401V191H195L96 0H8L352 656H763V586H485V380H717V309H485V71H773Z" glyph-name="AE" horiz-adv-x="822" unicode="&#xc6;"/><glyph d="M52 328Q52 407 74 470T135 577 227 644 344 668Q404 668 449 644T523 587L476 534Q450 562 419 578T345 595Q298 595 260 577T195 524 153 440 138 330Q138 268 152 219T193 134 256 80 341 61Q389 61 424 80T492 134L539 83Q500 38 451 13T339-12Q277-12 225 11T134 77 74 184 52 328ZM324 3H377L352-50Q376-58 393-74T411-121Q411-143 399-159T367-186 321-203 266-213L258-172Q298-167 322-156T347-124Q347-104 331-94T284-75L324 3Z" glyph-name="Ccedilla" horiz-adv-x="571" unicode="&#xc7;"/><glyph d="M90 656H468V586H173V380H422V309H173V71H478V0H90V656ZM153 818H247L335 706H266L153 818Z" glyph-name="Egrave" horiz-adv-x="527" unicode="&#xc8;"/><glyph d="M90 656H468V586H173V380H422V309H173V71H478V0H90V656ZM302 706H233L321 818H415L302 706Z" glyph-name="Eacute" horiz-adv-x="527" unicode="&#xc9;"/><glyph d="M90 656H468V586H173V380H422V309H173V71H478V0H90V656ZM148 706 244 818H324L420 706H353L286 774H282L215 706H148Z" glyph-name="Ecircumflex" horiz-adv-x="527" unicode="&#xca;"/><glyph d="M90 656H468V586H173V380H422V309H173V71H478V0H90V656ZM198 715Q176 715 163 729T149 764Q149 786 162 799T198 813Q219 813 233 800T247 764Q247 743 233 729T198 715ZM370 715Q349 715 335 729T321 764Q321 786 335 799T370 813Q392 813 405 800T419 764Q419 743 406 729T370 715Z" glyph-name="Edieresis" horiz-adv-x="527" unicode="&#xcb;"/><glyph d="M90 656H173V0H90V656ZM0 818H94L182 706H113L0 818Z" glyph-name="Igrave" horiz-adv-x="263" unicode="&#xcc;"/><glyph d="M90 656H173V0H90V656ZM149 706H80L168 818H262L149 706Z" glyph-name="Iacute" horiz-adv-x="263" unicode="&#xcd;"/><glyph d="M90 656H173V0H90V656ZM-5 706 91 818H171L267 706H200L133 774H129L62 706H-5Z" glyph-name="Icircumflex" horiz-adv-x="263" unicode="&#xce;"/><glyph d="M90 656H173V0H90V656ZM45 715Q23 715 10 729T-4 764Q-4 786 9 799T45 813Q66 813 80 800T94 764Q94 743 80 729T45 715ZM217 715Q196 715 182 729T168 764Q168 786 182 799T217 813Q239 813 252 800T266 764Q266 743 253 729T217 715Z" glyph-name="Idieresis" horiz-adv-x="263" unicode="&#xcf;"/><glyph d="M270 68Q385 68 442 137T500 331Q500 456 443 522T270 588H195V368H344V321H195V68H270ZM276 656Q428 656 507 572T586 331Q586 253 566 192T507 88 411 23 280 0H112V321H33V364L112 368V656H276Z" glyph-name="Eth" horiz-adv-x="638" unicode="&#xd0;"/><glyph d="M90 656H176L413 244 484 108H488Q485 158 482 211T478 317V656H557V0H471L233 413 162 548H158Q162 498 165 447T169 343V0H90V656ZM386 711Q366 711 350 719T321 737 294 755 267 763Q253 763 242 750T227 711H181Q186 758 208 788T266 819Q286 819 302 811T331 793 358 775 385 767Q399 767 410 780T425 819H471Q466 773 444 742T386 711Z" glyph-name="Ntilde" horiz-adv-x="647" unicode="&#xd1;"/><glyph d="M332-12Q270-12 219 12T130 80 73 188 52 331Q52 410 72 472T130 578 218 645 332 668Q394 668 445 645T534 578 592 472 613 331Q613 252 593 189T535 81 446 12 332-12ZM332 61Q376 61 411 80T472 134 512 219 526 331Q526 392 512 441T473 524 412 576 332 595Q288 595 253 577T192 524 152 441 138 331Q138 269 152 220T191 135 252 80 332 61ZM201 818H295L383 706H314L201 818Z" glyph-name="Ograve" horiz-adv-x="664" unicode="&#xd2;"/><glyph d="M332-12Q270-12 219 12T130 80 73 188 52 331Q52 410 72 472T130 578 218 645 332 668Q394 668 445 645T534 578 592 472 613 331Q613 252 593 189T535 81 446 12 332-12ZM332 61Q376 61 411 80T472 134 512 219 526 331Q526 392 512 441T473 524 412 576 332 595Q288 595 253 577T192 524 152 441 138 331Q138 269 152 220T191 135 252 80 332 61ZM350 706H281L369 818H463L350 706Z" glyph-name="Oacute" horiz-adv-x="664" unicode="&#xd3;"/><glyph d="M332-12Q270-12 219 12T130 80 73 188 52 331Q52 410 72 472T130 578 218 645 332 668Q394 668 445 645T534 578 592 472 613 331Q613 252 593 189T535 81 446 12 332-12ZM332 61Q376 61 411 80T472 134 512 219 526 331Q526 392 512 441T473 524 412 576 332 595Q288 595 253 577T192 524 152 441 138 331Q138 269 152 220T191 135 252 80 332 61ZM196 706 292 818H372L468 706H401L334 774H330L263 706H196Z" glyph-name="Ocircumflex" horiz-adv-x="664" unicode="&#xd4;"/><glyph d="M332-12Q270-12 219 12T130 80 73 188 52 331Q52 410 72 472T130 578 218 645 332 668Q394 668 445 645T534 578 592 472 613 331Q613 252 593 189T535 81 446 12 332-12ZM332 61Q376 61 411 80T472 134 512 219 526 331Q526 392 512 441T473 524 412 576 332 595Q288 595 253 577T192 524 152 441 138 331Q138 269 152 220T191 135 252 80 332 61ZM392 711Q372 711 356 719T327 737 300 755 273 763Q259 763 248 750T233 711H187Q192 758 214 788T272 819Q292 819 308 811T337 793 364 775 391 767Q405 767 416 780T431 819H477Q472 773 450 742T392 711Z" glyph-name="Otilde" horiz-adv-x="664" unicode="&#xd5;"/><glyph d="M332-12Q270-12 219 12T130 80 73 188 52 331Q52 410 72 472T130 578 218 645 332 668Q394 668 445 645T534 578 592 472 613 331Q613 252 593 189T535 81 446 12 332-12ZM332 61Q376 61 411 80T472 134 512 219 526 331Q526 392 512 441T473 524 412 576 332 595Q288 595 253 577T192 524 152 441 138 331Q138 269 152 220T191 135 252 80 332 61ZM246 715Q224 715 211 729T197 764Q197 786 210 799T246 813Q267 813 281 800T295 764Q295 743 281 729T246 715ZM418 715Q397 715 383 729T369 764Q369 786 383 799T418 813Q440 813 453 800T467 764Q467 743 454 729T418 715Z" glyph-name="Odieresis" horiz-adv-x="664" unicode="&#xd6;"/><glyph d="M50 171 205 330 50 488 94 533 249 374 403 533 447 488 292 330 447 171 403 126 249 286 94 126 50 171Z" glyph-name="multiply" horiz-adv-x="497" unicode="&#xd7;"/><glyph d="M208 116Q233 90 265 76T335 61Q379 61 414 80T475 134 515 219 529 331Q529 379 521 419T496 491L208 116ZM462 541Q411 595 335 595 291 595 255 577T194 524 154 441 140 331Q140 235 174 167L462 541ZM550 561Q581 518 598 461T615 331Q615 252 595 189T537 81 448 12 335-12Q283-12 239 4T159 53L96-30 50 6 120 97Q88 141 71 200T54 331Q54 410 74 472T132 578 221 645 335 668Q439 668 510 605L573 686 619 651 550 561Z" glyph-name="Oslash" horiz-adv-x="664" unicode="&#xd8;"/><glyph d="M87 656H170V269Q170 210 182 170T214 106 263 72 323 61Q356 61 384 71T433 106 466 170 478 269V656H558V271Q558 192 540 138T491 51 416 3 323-12Q273-12 230 2T155 50 105 138 87 271V656ZM191 818H285L373 706H304L191 818Z" glyph-name="Ugrave" horiz-adv-x="645" unicode="&#xd9;"/><glyph d="M87 656H170V269Q170 210 182 170T214 106 263 72 323 61Q356 61 384 71T433 106 466 170 478 269V656H558V271Q558 192 540 138T491 51 416 3 323-12Q273-12 230 2T155 50 105 138 87 271V656ZM340 706H271L359 818H453L340 706Z" glyph-name="Uacute" horiz-adv-x="645" unicode="&#xda;"/><glyph d="M87 656H170V269Q170 210 182 170T214 106 263 72 323 61Q356 61 384 71T433 106 466 170 478 269V656H558V271Q558 192 540 138T491 51 416 3 323-12Q273-12 230 2T155 50 105 138 87 271V656ZM186 706 282 818H362L458 706H391L324 774H320L253 706H186Z" glyph-name="Ucircumflex" horiz-adv-x="645" unicode="&#xdb;"/><glyph d="M87 656H170V269Q170 210 182 170T214 106 263 72 323 61Q356 61 384 71T433 106 466 170 478 269V656H558V271Q558 192 540 138T491 51 416 3 323-12Q273-12 230 2T155 50 105 138 87 271V656ZM236 715Q214 715 201 729T187 764Q187 786 200 799T236 813Q257 813 271 800T285 764Q285 743 271 729T236 715ZM408 715Q387 715 373 729T359 764Q359 786 373 799T408 813Q430 813 443 800T457 764Q457 743 444 729T408 715Z" glyph-name="Udieresis" horiz-adv-x="645" unicode="&#xdc;"/><glyph d="M196 254-1 656H88L173 471Q189 435 204 400T236 328H240Q257 365 274 400T306 471L390 656H477L280 254V0H196V254ZM256 706H187L275 818H369L256 706Z" glyph-name="Yacute" horiz-adv-x="476" unicode="&#xdd;"/><glyph d="M90 656H173V546H291Q345 546 390 536T466 503 515 444 533 353Q533 301 516 263T466 199 390 162 291 150H173V0H90V656ZM281 218Q367 218 408 250T450 353Q450 424 408 451T281 478H173V218H281Z" glyph-name="Thorn" horiz-adv-x="583" unicode="&#xde;"/><glyph d="M82 515Q82 609 133 665T278 722Q317 722 347 711T399 679 430 633 441 576Q441 538 427 512T396 463 364 421 350 374Q350 350 364 334T401 306 448 280 496 249 532 204 547 137Q547 105 536 78T504 31 454 0 387-12Q345-12 311 1T246 37L279 95Q305 73 330 63T385 52Q427 52 448 76T469 132Q469 161 455 180T418 213 371 239 323 268 287 306 272 364Q272 398 285 422T315 468 346 513 360 568Q360 606 340 630T277 655Q223 655 194 617T164 500V0H82V515Z" glyph-name="germandbls" horiz-adv-x="576" unicode="&#xdf;"/><glyph d="M58 126Q58 206 129 248T357 308Q357 331 353 353T337 392 306 419 257 430Q214 430 178 414T112 378L79 435Q113 457 162 477T270 498Q359 498 399 444T439 298V0H371L364 58H362Q327 29 287 9T201-12Q139-12 99 24T58 126ZM139 132Q139 90 163 72T224 54Q259 54 290 70T357 119V254Q296 246 254 235T187 209 150 175 139 132ZM158 714H244L334 573H271L158 714Z" glyph-name="agrave" horiz-adv-x="512" unicode="&#xe0;"/><glyph d="M58 126Q58 206 129 248T357 308Q357 331 353 353T337 392 306 419 257 430Q214 430 178 414T112 378L79 435Q113 457 162 477T270 498Q359 498 399 444T439 298V0H371L364 58H362Q327 29 287 9T201-12Q139-12 99 24T58 126ZM139 132Q139 90 163 72T224 54Q259 54 290 70T357 119V254Q296 246 254 235T187 209 150 175 139 132ZM267 573H204L294 714H380L267 573Z" glyph-name="aacute" horiz-adv-x="512" unicode="&#xe1;"/><glyph d="M58 126Q58 206 129 248T357 308Q357 331 353 353T337 392 306 419 257 430Q214 430 178 414T112 378L79 435Q113 457 162 477T270 498Q359 498 399 444T439 298V0H371L364 58H362Q327 29 287 9T201-12Q139-12 99 24T58 126ZM139 132Q139 90 163 72T224 54Q259 54 290 70T357 119V254Q296 246 254 235T187 209 150 175 139 132ZM235 714H303L398 573H338L271 664H267L200 573H140L235 714Z" glyph-name="acircumflex" horiz-adv-x="512" unicode="&#xe2;"/><glyph d="M58 126Q58 206 129 248T357 308Q357 331 353 353T337 392 306 419 257 430Q214 430 178 414T112 378L79 435Q113 457 162 477T270 498Q359 498 399 444T439 298V0H371L364 58H362Q327 29 287 9T201-12Q139-12 99 24T58 126ZM139 132Q139 90 163 72T224 54Q259 54 290 70T357 119V254Q296 246 254 235T187 209 150 175 139 132ZM130 579Q134 624 154 654T211 685Q230 685 246 677T275 660 301 642 325 634Q353 634 362 685H408Q404 640 384 610T327 579Q308 579 293 587T264 604 238 622 213 630Q185 630 176 579H130V579Z" glyph-name="atilde" horiz-adv-x="512" unicode="&#xe3;"/><glyph d="M58 126Q58 206 129 248T357 308Q357 331 353 353T337 392 306 419 257 430Q214 430 178 414T112 378L79 435Q113 457 162 477T270 498Q359 498 399 444T439 298V0H371L364 58H362Q327 29 287 9T201-12Q139-12 99 24T58 126ZM139 132Q139 90 163 72T224 54Q259 54 290 70T357 119V254Q296 246 254 235T187 209 150 175 139 132ZM183 588Q161 588 148 602T134 637Q134 658 147 672T183 686Q204 686 218 672T232 637Q232 616 218 602T183 588ZM355 588Q334 588 320 602T306 637Q306 658 320 672T355 686Q377 686 390 672T404 637Q404 616 391 602T355 588Z" glyph-name="adieresis" horiz-adv-x="512" unicode="&#xe4;"/><glyph d="M58 126Q58 206 129 248T357 308Q357 331 353 353T337 392 306 419 257 430Q214 430 178 414T112 378L79 435Q113 457 162 477T270 498Q359 498 399 444T439 298V0H371L364 58H362Q327 29 287 9T201-12Q139-12 99 24T58 126ZM139 132Q139 90 163 72T224 54Q259 54 290 70T357 119V254Q296 246 254 235T187 209 150 175 139 132ZM269 542Q228 542 202 567T176 635Q176 677 202 702T269 727Q310 727 336 702T362 635Q362 593 336 568T269 542ZM269 579Q289 579 303 594T317 635Q317 660 303 675T269 690Q249 690 235 675T221 635Q221 609 235 594T269 579Z" glyph-name="aring" horiz-adv-x="512" unicode="&#xe5;"/><glyph d="M139 132Q139 90 163 72T224 54Q258 54 298 73T371 129Q363 148 358 174T352 229V254Q294 246 254 235T188 209 151 175 139 132ZM79 435Q113 457 161 477T263 498Q317 498 352 471T402 395Q431 443 471 470T562 498Q607 498 641 482T699 436 735 364 747 269Q747 241 744 223H429Q430 185 442 154T475 101 522 67 580 55Q615 55 643 66T698 95L728 38Q696 18 658 3T570-12Q509-12 468 15T399 79Q349 34 299 11T201-12Q139-12 99 24T58 126Q58 206 129 248T352 308Q352 331 348 353T333 392 302 419 253 430Q213 430 177 414T112 378L79 435ZM675 278Q675 353 646 393T560 433Q509 433 473 392T429 278H675Z" glyph-name="ae" horiz-adv-x="785" unicode="&#xe6;"/><glyph d="M46 242Q46 303 65 350T116 431 190 481 280 498Q328 498 362 481T422 440L381 387Q359 406 336 418T283 430Q250 430 222 417T174 378 143 319 131 242Q131 200 142 166T172 108 220 70 281 56Q316 56 344 70T395 105L432 51Q399 22 359 5T274-12Q226-12 184 5T112 54 64 134 46 242ZM253 3H306L281-50Q305-58 322-74T340-121Q340-143 328-159T296-186 250-203 195-213L187-172Q227-167 251-156T276-124Q276-104 260-94T213-75L253 3Z" glyph-name="ccedilla" horiz-adv-x="456" unicode="&#xe7;"/><glyph d="M46 242Q46 302 64 349T113 430 183 480 264 498Q310 498 346 482T407 436 445 364 458 270Q458 243 455 225H127Q132 146 175 100T289 54Q324 54 353 64T410 92L439 38Q407 18 368 3T279-12Q230-12 188 5T114 55 64 135 46 242ZM386 279Q386 354 355 393T266 433Q240 433 217 423T174 393 143 345 126 279H386ZM154 714H240L330 573H267L154 714Z" glyph-name="egrave" horiz-adv-x="496" unicode="&#xe8;"/><glyph d="M46 242Q46 302 64 349T113 430 183 480 264 498Q310 498 346 482T407 436 445 364 458 270Q458 243 455 225H127Q132 146 175 100T289 54Q324 54 353 64T410 92L439 38Q407 18 368 3T279-12Q230-12 188 5T114 55 64 135 46 242ZM386 279Q386 354 355 393T266 433Q240 433 217 423T174 393 143 345 126 279H386ZM263 573H200L290 714H376L263 573Z" glyph-name="eacute" horiz-adv-x="496" unicode="&#xe9;"/><glyph d="M46 242Q46 302 64 349T113 430 183 480 264 498Q310 498 346 482T407 436 445 364 458 270Q458 243 455 225H127Q132 146 175 100T289 54Q324 54 353 64T410 92L439 38Q407 18 368 3T279-12Q230-12 188 5T114 55 64 135 46 242ZM386 279Q386 354 355 393T266 433Q240 433 217 423T174 393 143 345 126 279H386ZM231 714H299L394 573H334L267 664H263L196 573H136L231 714Z" glyph-name="ecircumflex" horiz-adv-x="496" unicode="&#xea;"/><glyph d="M46 242Q46 302 64 349T113 430 183 480 264 498Q310 498 346 482T407 436 445 364 458 270Q458 243 455 225H127Q132 146 175 100T289 54Q324 54 353 64T410 92L439 38Q407 18 368 3T279-12Q230-12 188 5T114 55 64 135 46 242ZM386 279Q386 354 355 393T266 433Q240 433 217 423T174 393 143 345 126 279H386ZM179 588Q157 588 144 602T130 637Q130 658 143 672T179 686Q200 686 214 672T228 637Q228 616 214 602T179 588ZM351 588Q330 588 316 602T302 637Q302 658 316 672T351 686Q373 686 386 672T400 637Q400 616 387 602T351 588Z" glyph-name="edieresis" horiz-adv-x="496" unicode="&#xeb;"/><glyph d="M82 486H164V0H82V486ZM12 714H98L188 573H125L12 714Z" glyph-name="igrave" horiz-adv-x="246" unicode="&#xec;"/><glyph d="M82 486H164V0H82V486ZM121 573H58L148 714H234L121 573Z" glyph-name="iacute" horiz-adv-x="246" unicode="&#xed;"/><glyph d="M82 486H164V0H82V486ZM89 714H157L252 573H192L125 664H121L54 573H-6L89 714Z" glyph-name="icircumflex" horiz-adv-x="246" unicode="&#xee;"/><glyph d="M82 486H164V0H82V486ZM37 588Q15 588 2 602T-12 637Q-12 658 1 672T37 686Q58 686 72 672T86 637Q86 616 72 602T37 588ZM209 588Q188 588 174 602T160 637Q160 658 174 672T209 686Q231 686 244 672T258 637Q258 616 245 602T209 588Z" glyph-name="idieresis" horiz-adv-x="246" unicode="&#xef;"/><glyph d="M271 56Q305 56 330 70T372 111 397 173 406 254Q406 268 406 282T404 309Q371 353 338 368T271 383Q238 383 212 371T168 337 141 286 131 222Q131 184 142 154T172 102 217 68 271 56ZM349 605Q409 544 447 460T485 257Q485 197 470 148T426 63 358 8 269-12Q227-12 188 4T119 50 71 124 53 222Q53 273 69 314T112 385 177 431 259 447Q297 447 332 431T393 381Q379 443 352 489T286 573L145 500 121 541 248 606Q196 646 136 678L174 730Q210 710 245 688T312 639L454 712 478 671 349 605Z" glyph-name="eth" horiz-adv-x="545" unicode="&#xf0;"/><glyph d="M82 486H150L157 416H160Q195 451 233 474T323 498Q400 498 435 450T471 308V0H389V297Q389 366 367 396T297 427Q259 427 230 408T164 352V0H82V486ZM153 579Q157 624 177 654T234 685Q253 685 269 677T298 660 324 642 348 634Q376 634 385 685H431Q427 640 407 610T350 579Q331 579 316 587T287 604 261 622 236 630Q208 630 199 579H153V579Z" glyph-name="ntilde" horiz-adv-x="547" unicode="&#xf1;"/><glyph d="M46 242Q46 303 64 350T114 431 185 481 271 498Q316 498 356 481T428 431 477 351 496 242Q496 182 478 135T428 55 357 5 271-12Q226-12 186 5T114 54 65 134 46 242ZM131 242Q131 200 141 166T169 108 214 70 271 56Q302 56 328 69T372 107 401 166 411 242Q411 284 401 318T373 378 328 416 271 430Q240 430 214 417T170 378 141 319 131 242ZM160 714H246L336 573H273L160 714Z" glyph-name="ograve" horiz-adv-x="542" unicode="&#xf2;"/><glyph d="M46 242Q46 303 64 350T114 431 185 481 271 498Q316 498 356 481T428 431 477 351 496 242Q496 182 478 135T428 55 357 5 271-12Q226-12 186 5T114 54 65 134 46 242ZM131 242Q131 200 141 166T169 108 214 70 271 56Q302 56 328 69T372 107 401 166 411 242Q411 284 401 318T373 378 328 416 271 430Q240 430 214 417T170 378 141 319 131 242ZM269 573H206L296 714H382L269 573Z" glyph-name="oacute" horiz-adv-x="542" unicode="&#xf3;"/><glyph d="M46 242Q46 303 64 350T114 431 185 481 271 498Q316 498 356 481T428 431 477 351 496 242Q496 182 478 135T428 55 357 5 271-12Q226-12 186 5T114 54 65 134 46 242ZM131 242Q131 200 141 166T169 108 214 70 271 56Q302 56 328 69T372 107 401 166 411 242Q411 284 401 318T373 378 328 416 271 430Q240 430 214 417T170 378 141 319 131 242ZM237 714H305L400 573H340L273 664H269L202 573H142L237 714Z" glyph-name="ocircumflex" horiz-adv-x="542" unicode="&#xf4;"/><glyph d="M46 242Q46 303 64 350T114 431 185 481 271 498Q316 498 356 481T428 431 477 351 496 242Q496 182 478 135T428 55 357 5 271-12Q226-12 186 5T114 54 65 134 46 242ZM131 242Q131 200 141 166T169 108 214 70 271 56Q302 56 328 69T372 107 401 166 411 242Q411 284 401 318T373 378 328 416 271 430Q240 430 214 417T170 378 141 319 131 242ZM132 579Q136 624 156 654T213 685Q232 685 248 677T277 660 303 642 327 634Q355 634 364 685H410Q406 640 386 610T329 579Q310 579 295 587T266 604 240 622 215 630Q187 630 178 579H132V579Z" glyph-name="otilde" horiz-adv-x="542" unicode="&#xf5;"/><glyph d="M46 242Q46 303 64 350T114 431 185 481 271 498Q316 498 356 481T428 431 477 351 496 242Q496 182 478 135T428 55 357 5 271-12Q226-12 186 5T114 54 65 134 46 242ZM131 242Q131 200 141 166T169 108 214 70 271 56Q302 56 328 69T372 107 401 166 411 242Q411 284 401 318T373 378 328 416 271 430Q240 430 214 417T170 378 141 319 131 242ZM185 588Q163 588 150 602T136 637Q136 658 149 672T185 686Q206 686 220 672T234 637Q234 616 220 602T185 588ZM357 588Q336 588 322 602T308 637Q308 658 322 672T357 686Q379 686 392 672T406 637Q406 616 393 602T357 588Z" glyph-name="odieresis" horiz-adv-x="542" unicode="&#xf6;"/><glyph d="M249 456Q226 456 210 471T194 510Q194 533 210 548T249 563Q272 563 287 548T303 510Q303 486 288 471T249 456ZM194 150Q194 173 210 188T249 203Q272 203 287 188T303 150Q303 126 288 111T249 96Q226 96 210 111T194 150ZM34 361H463V299H34V361Z" glyph-name="divide" horiz-adv-x="497" unicode="&#xf7;"/><glyph d="M178 93Q217 54 271 54 302 54 328 67T374 105 404 164 415 239Q415 306 391 353L178 93ZM364 392Q327 432 271 432 240 432 214 419T168 381 138 322 127 246Q127 179 150 133L364 392ZM442 415Q467 383 481 340T496 242Q496 182 478 135T428 55 357 5 271-12Q192-12 132 37L83-23 46 6 100 71Q75 103 61 145T46 242Q46 303 64 350T114 431 185 481 271 498Q309 498 345 486T410 448L460 509 496 480 442 415Z" glyph-name="oslash" horiz-adv-x="542" unicode="&#xf8;"/><glyph d="M75 486H158V189Q158 120 179 90T249 59Q287 59 316 78T380 141V486H462V0H394L387 76H384Q350 36 313 12T224-12Q146-12 111 36T75 178V486ZM161 714H247L337 573H274L161 714Z" glyph-name="ugrave" horiz-adv-x="544" unicode="&#xf9;"/><glyph d="M75 486H158V189Q158 120 179 90T249 59Q287 59 316 78T380 141V486H462V0H394L387 76H384Q350 36 313 12T224-12Q146-12 111 36T75 178V486ZM270 573H207L297 714H383L270 573Z" glyph-name="uacute" horiz-adv-x="544" unicode="&#xfa;"/><glyph d="M75 486H158V189Q158 120 179 90T249 59Q287 59 316 78T380 141V486H462V0H394L387 76H384Q350 36 313 12T224-12Q146-12 111 36T75 178V486ZM238 714H306L401 573H341L274 664H270L203 573H143L238 714Z" glyph-name="ucircumflex" horiz-adv-x="544" unicode="&#xfb;"/><glyph d="M75 486H158V189Q158 120 179 90T249 59Q287 59 316 78T380 141V486H462V0H394L387 76H384Q350 36 313 12T224-12Q146-12 111 36T75 178V486ZM186 588Q164 588 151 602T137 637Q137 658 150 672T186 686Q207 686 221 672T235 637Q235 616 221 602T186 588ZM358 588Q337 588 323 602T309 637Q309 658 323 672T358 686Q380 686 393 672T407 637Q407 616 394 602T358 588Z" glyph-name="udieresis" horiz-adv-x="544" unicode="&#xfc;"/><glyph d="M49-134Q57-136 67-138T86-141Q128-141 154-112T196-37L207-1 12 486H97L196 217Q207 185 219 150T243 80H247Q258 113 268 149T288 217L375 486H455L272-40Q259-76 243-107T205-160 155-196 90-209Q73-209 59-207T33-199L49-134V-134ZM240 573H177L267 714H353L240 573Z" glyph-name="yacute" horiz-adv-x="467" unicode="&#xfd;"/><glyph d="M164-205H82V712H164V518L163 435Q195 461 233 479T311 498Q359 498 395 481T457 431 494 353 507 250Q507 188 490 140T444 57 377 6 297-12Q262-12 229 2T163 42L164-41V-205ZM164 108Q197 80 228 69T283 57Q313 57 338 70T382 108 411 169 422 250Q422 290 415 323T393 379 353 416 294 429Q263 429 232 412T164 363V108Z" glyph-name="thorn" horiz-adv-x="555" unicode="&#xfe;"/><glyph d="M49-134Q57-136 67-138T86-141Q128-141 154-112T196-37L207-1 12 486H97L196 217Q207 185 219 150T243 80H247Q258 113 268 149T288 217L375 486H455L272-40Q259-76 243-107T205-160 155-196 90-209Q73-209 59-207T33-199L49-134V-134ZM156 588Q134 588 121 602T107 637Q107 658 120 672T156 686Q177 686 191 672T205 637Q205 616 191 602T156 588ZM328 588Q307 588 293 602T279 637Q279 658 293 672T328 686Q350 686 363 672T377 637Q377 616 364 602T328 588Z" glyph-name="ydieresis" horiz-adv-x="467" unicode="&#xff;"/><glyph d="M41 280H439V223H41V280Z" glyph-name="endash" horiz-adv-x="480" unicode="&#x2013;"/><glyph d="M41 280H759V223H41V280Z" glyph-name="emdash" horiz-adv-x="800" unicode="&#x2014;"/><glyph d="M187 657Q149 632 130 604T111 533Q114 534 120 534 140 534 156 521T173 483Q173 457 158 443T120 428Q90 428 74 451T57 518Q57 578 84 622T163 696L187 657Z" glyph-name="quoteleft" horiz-adv-x="249" unicode="&#x2018;"/><glyph d="M63 469Q101 494 119 522T138 594Q135 593 130 593 109 593 93 606T77 643Q77 669 92 684T130 699Q159 699 176 676T193 608Q193 548 166 505T86 431L63 469Z" glyph-name="quoteright" horiz-adv-x="249" unicode="&#x2019;"/><glyph d="M63-106Q101-81 119-53T138 19Q135 18 130 18 109 18 93 31T77 68Q77 94 92 109T130 124Q159 124 176 101T193 33Q193-27 166-70T86-144L63-106Z" glyph-name="quotesinglbase" horiz-adv-x="249" unicode="&#x201a;"/><glyph d="M187 657Q149 632 130 604T111 533Q114 534 120 534 140 534 156 521T173 483Q173 457 158 443T120 428Q90 428 74 451T57 518Q57 578 84 622T163 696L187 657ZM363 657Q325 632 306 604T287 533Q290 534 296 534 316 534 332 521T349 483Q349 457 334 443T296 428Q266 428 250 451T233 518Q233 578 260 622T339 696L363 657Z" glyph-name="quotedblleft" horiz-adv-x="425" unicode="&#x201c;"/><glyph d="M63 469Q101 494 119 522T138 594Q135 593 130 593 109 593 93 606T77 643Q77 669 92 684T130 699Q159 699 176 676T193 608Q193 548 166 505T86 431L63 469ZM239 469Q277 494 295 522T314 594Q311 593 306 593 285 593 269 606T253 643Q253 669 268 684T306 699Q335 699 352 676T369 608Q369 548 342 505T262 431L239 469Z" glyph-name="quotedblright" horiz-adv-x="425" unicode="&#x201d;"/><glyph d="M63-106Q101-81 119-53T138 19Q135 18 130 18 109 18 93 31T77 68Q77 94 92 109T130 124Q159 124 176 101T193 33Q193-27 166-70T86-144L63-106ZM239-106Q277-81 295-53T314 19Q311 18 306 18 285 18 269 31T253 68Q253 94 268 109T306 124Q335 124 352 101T369 33Q369-27 342-70T262-144L239-106Z" glyph-name="quotedblbase" horiz-adv-x="425" unicode="&#x201e;"/><glyph d="M152 143Q129 143 109 151T74 176 49 214 40 263Q40 290 49 312T73 350 109 375 152 384Q174 384 194 375T230 351 255 313 264 263Q264 236 255 214T231 176 195 152 152 143Z" glyph-name="bullet" horiz-adv-x="304" unicode="&#x2022;"/><glyph d="M45 221V283L181 438 217 408 99 252 217 94 181 66 45 221Z" glyph-name="guilsinglleft" horiz-adv-x="271" unicode="&#x2039;"/><glyph d="M172 252 54 408 89 438 226 283V221L89 66 54 94 172 252Z" glyph-name="guilsinglright" horiz-adv-x="271" unicode="&#x203a;"/></font>
</defs>
</svg>
