<svg viewBox="0 0 32 32" fill="currentColor" width="32" height="32" xmlns="http://www.w3.org/2000/svg" xmlns:xlink="http://www.w3.org/1999/xlink">
    <path d="M28.7071 19.293 26 16.5859V13a10.0136 10.0136 0 0 0-9-9.9492V1h-2v2.0508A10.0136 10.0136 0 0 0 6 13v3.5859L3.2929 19.293A1 1 0 0 0 3 20v3a1 1 0 0 0 1 1h7v0.7768a5.152 5.152 0 0 0 4.5 5.1987A5.0057 5.0057 0 0 0 21 25v-1h7a1 1 0 0 0 1-1v-3a1 1 0 0 0-0.2929-0.707zM19 25a3 3 0 0 1-6 0v-1h6zM27 22H5v-1.5859l2.707-2.7071A1 1 0 0 0 8 17v-4a8 8 0 0 1 16 0v4a1 1 0 0 0 0.293 0.707L27 20.4141z" />
</svg>