<svg viewBox="0 0 1024 1024" width="32" height="32" xmlns="http://www.w3.org/2000/svg" xmlns:xlink="http://www.w3.org/1999/xlink">
    <path fill="currentColor" d="M916 369v0q-47-61-109-106l153-154-45-45L64 915l45 45 163-163q55 32 116 49t124 18q106-4 202-48 94-43 165-118 73-77 111-175 1-3 2-5 0-3 0-6t0-6q-1-2-2-5-27-72-74-132zM447 710v0q-31-11-58-30l59-58q25 13 53 15 27 2 53-7 26-10 46-30t30-46q9-26 7-53-2-28-15-53l58-58q19 27 29 59 10 31 10 63 0 25-5 48-6 24-17 46-18 35-46 61-29 25-64 39-36 14-75 14-33 0-65-10zM305 538q-1-7-1-13 0-7 0-13 0-42 16-81 16-37 45-66t66-45q39-16 81-16 6 0 13 0 6 1 12 2l121-121q-35-12-72-18-37-7-74-7-106 4-202 48-94 43-165 118-73 77-111 175-1 3-2 5 0 3 0 6t0 6q1 2 2 5 18 49 46 93t65 82z" />
</svg>