<svg viewBox="0 0 1024 1024" width="32" height="32" xmlns="http://www.w3.org/2000/svg" xmlns:xlink="http://www.w3.org/1999/xlink">
    <path fill="currentColor" d="M577 623v0q29-17 46-46 17-30 17-65t-17-65q-17-29-46-46-30-17-65-17t-65 17q-29 17-46 46-17 30-17 65t17 65q17 29 46 46 30 17 65 17t65-17zM879 326v0q-71-75-165-118-96-44-202-48-106 4-202 48-94 43-165 118-73 77-111 175-1 3-2 5 0 3 0 6t0 6q1 2 2 5 38 98 111 175 71 75 165 118 96 44 202 48 106-4 202-48 94-43 165-118 73-77 111-175 1-3 2-5 0-3 0-6t0-6q-1-2-2-5-38-98-111-175zM432 704q-38-16-67-45t-45-67q-8-20-12-40t-4-40q0-41 16-79 15-39 45-68 29-30 68-45 38-16 79-16 20 0 40 4t40 12q38 16 67 45t45 67 16 80-16 81q-16 37-45 66t-66 45q-39 16-81 16t-80-16z" />
</svg>