<svg viewBox="0 0 1024 1024" width="32" height="32" xmlns="http://www.w3.org/2000/svg" xmlns:xlink="http://www.w3.org/1999/xlink">
    <path fill="currentColor" d="M864 487l61-53q11-10 17-22 5-13 5-26 0-9-2-18-3-8-7-16l-76-128q-8-15-23-23-15-9-32-9-5 0-11 1-5 1-10 2l-78 26q-10-6-20-12-11-6-21-12l-17-80q-3-15-12-27-9-11-22-18t-21-7-9 0q-150 0-151 0-15 0-28 7t-22 18q-10 12-13 27l-16 80q-11 6-21 12-11 6-21 12l-76-27q-5-1-10-2-6 0-11 0-17 0-32 9-15 8-23 23L86 352q-4 7-6 16-2 8-2 16 0 14 5 26 6 13 17 22l60 56v49l-60 53q-11 10-17 23-6 12-6 26 0 9 2 17 3 8 7 16l76 128q8 15 23 23 15 9 32 9 5 0 11-1 5-1 10-2l78-26q10 6 20 12 11 6 21 12l17 80q3 15 12 27 9 11 22 18t21 7 9 0h151 1q15 0 29-7 13-7 22-18 9-12 12-27l16-80q11-6 22-12 10-6 20-12l78 26q5 1 10 2t10 1q17 0 32-9 15-8 24-23l73-128q4-7 6-16 2-8 2-16 0-14-5-26-6-13-17-22l-60-56zM697 731q-19 16-41 29t-46 21l-22 115H436l-22-114q-24-8-46-21-21-13-41-29l-110 36-75-128 87-77q-5-25-5-50t5-50l-87-79 75-128 110 37q19-16 41-29t46-21l22-115h152l22 114q24 8 46 21 21 13 41 29l110-36 75 128-87 77q5 25 5 50t-5 50l87 79-75 128zM514 723v0q38 0 73-14 35-15 61-42 27-26 42-61 14-35 14-73v-1-1q0-38-15-74-14-35-41-61-27-28-63-42-17-8-36-11-18-4-37-4-38 0-73 14-35 15-63 42-27 28-42 63-14 35-14 54t4 37q3 19 11 36 14 36 42 63 26 27 61 41 36 15 74 15 1 19 2 19zM513 403q1 0 2 0 25 0 48 9 23 10 40 28 18 17 28 40 9 23 9 48 0 1 0 1.5t0 2.5q0 1 0 2 0 25-9 48-10 23-28 40-17 18-40 28-23 9-48 9-1 0-1.5 0t-2.5 0q-1 0-2 0-25 0-48-9-23-10-40-28-18-17-28-40-9-23-9-48 0-1 0-1.5t0-2.5q0-1 0-2 0-25 9-48 10-23 28-40 17-18 40-28 23-9 48-9 1 0 1.5 0t1.5 0z" />
</svg>