<svg viewBox="0 0 1024 1024" width="32" height="32" xmlns="http://www.w3.org/2000/svg" xmlns:xlink="http://www.w3.org/1999/xlink">
    <path fill="currentColor" d="M584 78q-43 14-80 40-36 26-63 62-27 37-42 80-14 42-15 87t12 89L64 768v192h192l332-332q54 16 110 11 55-5 104-30 50-25 87-67 35-40 53-89t18-101q0-31-6-60-7-31-20-59-23-51-63-89t-91-59q-52-21-108-21-45 0-88 14zM639 574v0q-16-3-32-8l-37-11-27 27-102 102-44-44-45 45 44 44-51 51-44-44-45 45 44 44-71 71H128V795l314-314 27-27-11-37q-14-46-8-93 6-46 30-87t63-68q29-20 62-31 33-10 67-10 36 0 70 11t63 33q44 32 68 80 23 47 23 100 0 18-3 35-3 18-8 35-15 46-47 81-32 34-75 54-43 19-91 19-17 0-33-2zM736 375v0q15-8 23-23 9-15 9-32t-9-32q-8-15-23-23-15-9-32-9t-32 9q-15 8-23 23-9 15-9 32t9 32q8 15 23 23 15 9 32 9t32-9z" />
</svg>