<svg viewBox="0 0 1024 1024" width="32" height="32" xmlns="http://www.w3.org/2000/svg" xmlns:xlink="http://www.w3.org/1999/xlink">
    <path fill="currentColor" d="M864 448V64h-64v384h-32q-17 0-32 9-15 8-23 23-9 15-9 32v64q0 18 9 32 8 15 23 23 15 9 32 9h32v320h64V640h32q17 0 32-9 15-8 23-23 9-14 9-32v-64q0-17-9-32-8-15-23-23-15-9-32-9zM768 576v-64h128v64zM544 192V64h-64v128h-32q-17 0-32 9-15 8-23 23-9 15-9 32v64q0 18 9 32 8 15 23 23 15 9 32 9h32v576h64V384h32q17 0 32-9 15-8 23-23 9-14 9-32v-64q0-17-9-32-8-15-23-23-15-9-32-9zM448 320v-64h128v64zM224 640V64h-64v576h-32q-17 0-32 9-15 8-23 23-9 15-9 32v64q0 18 9 32 8 15 23 23 15 9 32 9h32v128h64V832h32q17 0 32-9 15-8 23-23 9-14 9-32v-64q0-17-9-32-8-15-23-23-15-9-32-9zM128 768v-64h128v64z" />
</svg>