<svg viewBox="0 0 32 32" fill="currentColor" width="32" height="32" xmlns="http://www.w3.org/2000/svg" xmlns:xlink="http://www.w3.org/1999/xlink">
    <path d="M16 2a1 1 0 0 0-1 1v7.09a5.9618 5.9618 0 0 0-2.46 1.043L7.8384 6.4311a1.4554 1.4554 0 0 0-2.087 0.0244 14.05 14.05 0 0 0 4.0533 22.1417 10.8482 10.8482 0 0 0 1.8989 0.7676 14.0982 14.0982 0 0 0 13.8443-3.1319 1.4336 1.4336 0 0 0 0.0278-2.0639L20.877 19.47A5.963 5.963 0 0 0 21.91 17H29a1 1 0 0 0 1-1 14.0158 14.0158 0 0 0-14-14zM16 12a4 4 0 1 1-4 4 4.0045 4.0045 0 0 1 4-4zM6.83 8.251l4.2959 4.2959a5.91 5.91 0 0 0-0.0113 6.9243l-4.2765 4.2769A12.0168 12.0168 0 0 1 6.83 8.251zM8.2528 25.161l4.2759-4.2759A5.9589 5.9589 0 0 0 15 21.91v6.042a11.8783 11.8783 0 0 1-6.7472-2.791zM17 27.9561v-6.0469a5.9631 5.9631 0 0 0 2.4609-1.0273l4.2818 4.2817A11.8905 11.8905 0 0 1 17 27.9561zM21.91 15A6.0063 6.0063 0 0 0 17 10.09V4.041A12.0208 12.0208 0 0 1 27.9585 15z" />
</svg>