<svg viewBox="0 0 1024 1024" width="32" height="32" xmlns="http://www.w3.org/2000/svg" xmlns:xlink="http://www.w3.org/1999/xlink">
    <path fill="currentColor" d="M384 128v256H128V128zM64 64v384h384V64zM320 320V192H192v128zM896 128v256H640V128zM576 64v384h384V64zM832 320V192H704v128zM384 640v256H128V640zM64 576v384h384V576zM320 832V704H192v128zM704 576H576v64h128zM704 768h-64v64h128V640h-64zM896 704h64V576H832v64h64zM832 896v64h128V832h-64v64zM896 704h-64v128h-64v64h64v-64h64zM704 896h-64v-64h-64v128h128zM640 704h-64v64h64z" />
</svg>