<svg width="20" height="20" viewBox="0 0 20 20" fill="none" xmlns="http://www.w3.org/2000/svg">
<g clip-path="url(#clip0)">
<path d="M10 20.0625C15.5228 20.0625 20 15.5854 20 10.0625C20 4.53966 15.5228 0.0625076 10 0.0625076C4.47715 0.0625076 0 4.53966 0 10.0625C0 15.5854 4.47715 20.0625 10 20.0625Z" fill="#286BCB"/>
<path d="M4.87285 7.62399H11.3339C11.3339 7.62399 13.564 7.60315 12.0216 10.4793C12.0216 10.4793 10.8962 12.7303 8.10335 12.6886L9.60815 8.84533C9.62631 8.79976 9.63318 8.75048 9.62818 8.70168C9.62318 8.65288 9.60646 8.60601 9.57944 8.56507C9.55241 8.52413 9.5159 8.49033 9.47299 8.46655C9.43009 8.44277 9.38207 8.42971 9.33303 8.42849L7.35304 8.39514L4.85201 14.481C4.85201 14.481 5.68568 14.5644 6.14421 14.5227L5.8941 15.148H7.07376C7.10647 15.1482 7.13846 15.1383 7.16533 15.1197C7.1922 15.101 7.21263 15.0745 7.22382 15.0437L7.43641 14.481L7.93662 14.4393L7.64483 15.148H8.79531C8.83765 15.1483 8.87907 15.1356 8.91407 15.1118C8.94907 15.088 8.97598 15.0541 8.99122 15.0146L9.31219 14.1892C9.31219 14.1892 12.8136 13.6056 14.3976 10.7711C14.3976 10.7711 16.5235 7.47809 14.0225 6.31094C13.535 6.08743 13.0138 5.94656 12.4802 5.8941L12.772 5.17297C12.7808 5.15157 12.7843 5.12833 12.7821 5.10528C12.7799 5.08222 12.7721 5.06006 12.7593 5.04073C12.7466 5.0214 12.7293 5.00549 12.709 4.99439C12.6886 4.98329 12.6659 4.97733 12.6427 4.97705H11.5631L11.2297 5.85242H10.7711L11.0296 5.17297C11.0375 5.15121 11.0402 5.12788 11.0373 5.10489C11.0345 5.08191 11.0262 5.05994 11.0131 5.04079C11.0001 5.02165 10.9827 5.00588 10.9624 4.9948C10.942 4.98371 10.9193 4.97763 10.8962 4.97705H9.8124L9.47893 5.85242H6.11086C6.02034 5.85211 5.93144 5.87638 5.85363 5.92263C5.77581 5.96887 5.71201 6.03537 5.66901 6.11502L4.87285 7.62399Z" fill="white"/>
</g>
<defs>
<clipPath id="clip0">
<rect width="20" height="20" fill="white"/>
</clipPath>
</defs>
</svg>
